<svg xmlns="http://www.w3.org/2000/svg" viewBox="0 0 3061.39 547"><defs><style>.cls-1{isolation:isolate;}.cls-2,.cls-3,.cls-5,.cls-8{fill:#fff;}.cls-2,.cls-4{stroke:#0099cf;}.cls-2,.cls-4,.cls-5,.cls-6,.cls-7,.cls-8{stroke-miterlimit:10;stroke-width:2px;}.cls-4,.cls-6,.cls-7{fill:none;}.cls-5,.cls-6{stroke:#ff0080;}.cls-7,.cls-8{stroke:#1a008c;}.cls-9{fill:#1a008c;}.cls-10{fill:#ff0080;}.cls-10,.cls-11{mix-blend-mode:multiply;}.cls-11{fill:#0099cf;}</style></defs><title>PTF Rundenablauf DE_desk</title><g class="cls-1"><g id="Layer_3" data-name="Layer 3"><line class="cls-2" x1="822.22" y1="544" x2="822.22" y2="241"/><rect class="cls-3" x="742.39" y="349" width="102" height="19.62"/><line class="cls-4" x1="2864.89" y1="394" x2="2864.89" y2="241"/><rect class="cls-2" x="2501.06" y="416.32" width="181.32" height="61"/><rect class="cls-2" x="1453.72" y="417.32" width="181.32" height="61"/><rect class="cls-5" x="2671.89" y="1" width="247.5" height="61"/><rect class="cls-2" x="1733.89" y="357" width="197.5" height="37"/><rect class="cls-5" x="965.39" y="25" width="254" height="37"/><rect class="cls-5" x="559.04" y="83" width="254" height="61"/><rect class="cls-5" x="214.17" y="1" width="257.22" height="61"/><rect class="cls-5" x="1096.39" y="106" width="186" height="37"/><line class="cls-5" x1="2671.89" y1="241" x2="2671.89" y2="1"/><line class="cls-5" x1="2485.39" y1="241" x2="2485.39" y2="107.3"/><line class="cls-6" x1="965.64" y1="241" x2="965.39" y2="25.3"/><line class="cls-4" x1="2254.89" y1="394" x2="2254.89" y2="241"/><line class="cls-2" x1="865.34" y1="240" x2="865.34" y2="477"/><line class="cls-4" x1="1733.89" y1="394" x2="1733.89" y2="241"/><path d="M2106.56,1166.84v2h-13.18v-2H2099V1155H2094v-2h7v13.92Z" transform="translate(-349.11 -786)"/><path d="M2108.77,1166.5h2.48v2.38h-2.48Z" transform="translate(-349.11 -786)"/><path d="M2124.75,1152.92H2127l6.32,16h-2.29l-1.77-4.62h-6.8l-1.76,4.62h-2.29Zm3.78,9.3-2.65-6.8-2.64,6.8Z" transform="translate(-349.11 -786)"/><path d="M2135.06,1161.3v-8.38h2.1v8.27c0,3.4.29,6,3.9,6s3.91-2.63,3.91-6v-8.27h2.1v8.38c0,4.15-.5,7.91-6,7.91S2135.06,1165.43,2135.06,1161.3Z" transform="translate(-349.11 -786)"/><path d="M2149.13,1163.71h2.18c.65,2.77,2.59,3.55,5.15,3.55,2.08,0,3.42-.78,3.42-2.39s-1.57-2.29-2.69-2.61-2.31-.52-3.8-1c-1.95-.69-3.36-1.63-3.36-3.9,0-3.51,3.09-4.73,5.69-4.73,3.68,0,5.65,2.23,5.74,5.34h-2.15c-.23-2.78-2.22-3.36-3.82-3.36-1,0-3.29.27-3.29,2.48,0,1.17.63,1.74,2,2.22a23.62,23.62,0,0,0,2.9.8c1.3.31,4.81,1,4.81,4.57,0,3.18-1.94,4.58-5.76,4.58C2151.42,1169.21,2149.38,1166.69,2149.13,1163.71Z" transform="translate(-349.11 -786)"/><path d="M2175.44,1166.86v2h-12v-2l8.67-11.92h-8.46v-2h10.92l0,2-8.69,11.92Z" transform="translate(-349.11 -786)"/><path d="M2183.11,1152.92h2.27l6.32,16h-2.29l-1.77-4.62h-6.8l-1.76,4.62h-2.29Zm3.78,9.3-2.65-6.8-2.64,6.8Z" transform="translate(-349.11 -786)"/><path d="M2205.66,1152.92v16h-2.1v-7.37h-7.81v7.37h-2.1v-16h2.1v6.55h7.81v-6.55Z" transform="translate(-349.11 -786)"/><path d="M2220.17,1166.86v2h-10.48v-16h2.08v13.94Z" transform="translate(-349.11 -786)"/><path d="M2222.19,1161.3v-8.38h2.1v8.27c0,3.4.29,6,3.9,6s3.91-2.63,3.91-6v-8.27h2.1v8.38c0,4.15-.5,7.91-6,7.91S2222.19,1165.43,2222.19,1161.3Z" transform="translate(-349.11 -786)"/><path d="M2237.62,1152.92h2.08l7.83,12.7v-12.7h2.1v16h-2.2l-7.71-12.16v12.16h-2.1Z" transform="translate(-349.11 -786)"/><path d="M2252.7,1160.88c0-5,3.05-8.3,7.58-8.3,3.74,0,6.59,2.25,7.14,5.61h-2.18a4.87,4.87,0,0,0-5-3.61c-3.19,0-5.29,2.52-5.29,6.34s2.37,6.3,6,6.3a5.86,5.86,0,0,0,4.43-1.85v-2.62h-5.56v-2h7.62v5.46a8.08,8.08,0,0,1-6.53,3C2256,1169.21,2252.7,1165.87,2252.7,1160.88Z" transform="translate(-349.11 -786)"/><line class="cls-6" x1="1452.39" y1="240" x2="1452.39" y2="24.5"/><line class="cls-4" x1="1453.72" y1="479" x2="1453.72" y2="344"/><line class="cls-2" x1="733.96" y1="344" x2="733.96" y2="391.5"/><line class="cls-7" x1="214.04" y1="240.22" x2="1452.39" y2="240.22"/><line class="cls-7" x1="1452.39" y1="241.08" x2="3060.39" y2="241.08"/><line class="cls-6" x1="1096.39" y1="240" x2="1096.39" y2="105.5"/><line class="cls-2" x1="1141.89" y1="240" x2="1141.89" y2="477"/><circle class="cls-8" cx="734.23" cy="240.42" r="6.25"/><circle class="cls-8" cx="914.54" cy="240.05" r="6.25"/><circle class="cls-8" cx="1096.54" cy="240.82" r="6.25"/><circle class="cls-8" cx="1270.4" cy="240.67" r="6.25"/><circle class="cls-8" cx="1452.62" cy="240.31" r="6.25"/><circle class="cls-8" cx="1625.62" cy="240.31" r="6.25"/><circle class="cls-8" cx="1800.62" cy="239.31" r="6.25"/><circle class="cls-8" cx="1971.62" cy="241.31" r="6.25"/><path d="M576.29,809.07h2.19c.65,2.77,2.58,3.55,5.14,3.55,2.08,0,3.42-.78,3.42-2.39s-1.57-2.29-2.68-2.61-2.31-.52-3.8-1c-2-.69-3.36-1.63-3.36-3.9,0-3.51,3.08-4.72,5.69-4.72,3.67,0,5.65,2.22,5.73,5.33h-2.14c-.23-2.77-2.23-3.36-3.82-3.36-1,0-3.3.27-3.3,2.48,0,1.17.63,1.74,2,2.22a23.62,23.62,0,0,0,2.9.8c1.3.31,4.81,1,4.81,4.58,0,3.17-1.93,4.57-5.75,4.57C578.58,814.57,576.55,812.05,576.29,809.07Z" transform="translate(-349.11 -786)"/><path d="M597.25,800.3v13.94h-2.1V800.3h-4.89v-2H602.1l0,2Z" transform="translate(-349.11 -786)"/><path d="M607.83,798.28h2.27l6.32,16h-2.29l-1.76-4.62h-6.8l-1.77,4.62h-2.28Zm3.78,9.3-2.64-6.8-2.65,6.8Z" transform="translate(-349.11 -786)"/><path d="M618.38,798.28H624c3.32,0,5.34,1.37,5.34,4.26,0,3.26-2.73,4.08-6.26,4.08l6.91,7.62h-2.61l-6.88-7.62v7.62h-2.08Zm5.83,6.55c1.52,0,3-.73,3-2.31,0-1.4-1-2.35-3.3-2.35h-3.44v4.66Z" transform="translate(-349.11 -786)"/><path d="M637.86,800.3v13.94h-2.1V800.3h-4.89v-2h11.84l0,2Z" transform="translate(-349.11 -786)"/><path d="M577.66,822.28h5.58c3.09,0,5.34,1.37,5.34,4.24a3.29,3.29,0,0,1-2.25,3.15,3.87,3.87,0,0,1,3.09,4c0,2.75-1.68,4.56-5.15,4.56h-6.61Zm5.19,6.55c2.26,0,3.65-.71,3.65-2.22s-1-2.44-3.28-2.44h-3.48v4.66Zm.77,7.52c2.17,0,3.72-.9,3.72-2.86,0-1.68-1.35-2.77-3.91-2.77h-3.69v5.63Z" transform="translate(-349.11 -786)"/><path d="M603.53,836.22v2h-11v-16h10.68v2h-8.61v4.53h7.77v2h-7.77v5.35Z" transform="translate(-349.11 -786)"/><path d="M605.46,822.28h2.35l3.24,13.46,4.13-13.46h2.69L622,835.74l3.23-13.46h2.35l-4.43,16h-2.28l-4.35-13.78-4.35,13.78h-2.29Z" transform="translate(-349.11 -786)"/><path d="M641,836.22v2H630v-16h10.69v2h-8.61v4.53h7.77v2h-7.77v5.35Z" transform="translate(-349.11 -786)"/><path d="M644,822.28h5.58c3.32,0,5.34,1.37,5.34,4.26,0,3.26-2.73,4.08-6.26,4.08l6.91,7.62H653l-6.88-7.62v7.62H644Zm5.83,6.55c1.52,0,3-.73,3-2.31,0-1.4-1-2.35-3.3-2.35h-3.44v4.66Z" transform="translate(-349.11 -786)"/><path d="M657.94,822.28h5.59c3.08,0,5.33,1.37,5.33,4.24a3.29,3.29,0,0,1-2.25,3.15,3.87,3.87,0,0,1,3.09,4c0,2.75-1.68,4.56-5.15,4.56h-6.61Zm5.19,6.55c2.26,0,3.65-.71,3.65-2.22s-1-2.44-3.27-2.44H660v4.66Zm.77,7.52c2.17,0,3.72-.9,3.72-2.86,0-1.68-1.34-2.77-3.91-2.77H660v5.63Z" transform="translate(-349.11 -786)"/><path d="M672.77,830.66v-8.38h2.1v8.27c0,3.41.29,6,3.9,6s3.91-2.62,3.91-6v-8.27h2.1v8.38c0,4.16-.51,7.91-6,7.91S672.77,834.79,672.77,830.66Z" transform="translate(-349.11 -786)"/><path d="M688.2,822.28h2.08l7.83,12.7v-12.7h2.1v16H698l-7.71-12.16v12.16h-2.1Z" transform="translate(-349.11 -786)"/><path d="M703.28,830.24c0-5,3-8.29,7.58-8.29,3.74,0,6.59,2.24,7.14,5.6h-2.19a4.85,4.85,0,0,0-5-3.61c-3.2,0-5.3,2.52-5.3,6.34s2.38,6.3,6,6.3a5.87,5.87,0,0,0,4.43-1.85v-2.62h-5.56v-2H718v5.46a8.06,8.06,0,0,1-6.53,3C706.53,838.57,703.28,835.24,703.28,830.24Z" transform="translate(-349.11 -786)"/><path d="M720.06,833.07h2.18c.65,2.77,2.59,3.55,5.15,3.55,2.07,0,3.42-.78,3.42-2.39s-1.58-2.29-2.69-2.61-2.31-.52-3.8-1c-2-.69-3.36-1.63-3.36-3.9,0-3.51,3.09-4.72,5.69-4.72,3.68,0,5.65,2.22,5.73,5.33h-2.14c-.23-2.77-2.22-3.36-3.82-3.36-1,0-3.3.27-3.3,2.48,0,1.17.63,1.74,2,2.22a23.62,23.62,0,0,0,2.9.8c1.3.31,4.8,1,4.8,4.58,0,3.17-1.93,4.57-5.75,4.57C722.35,838.57,720.31,836.05,720.06,833.07Z" transform="translate(-349.11 -786)"/><path d="M735.47,822.28h6c3,0,4.93,1.45,4.93,4.47,0,2.65-1.64,4.39-4.95,4.39h-3.89v7.1h-2.08Zm5.55,7c2,0,3.29-.8,3.29-2.52,0-1.53-1-2.56-3.29-2.56h-3.47v5.08Z" transform="translate(-349.11 -786)"/><path d="M761.47,822.28v16h-2.1v-7.37h-7.81v7.37h-2.1v-16h2.1v6.55h7.81v-6.55Z" transform="translate(-349.11 -786)"/><path d="M769.74,822.28H772l6.32,16H776l-1.76-4.62h-6.8l-1.77,4.62h-2.29Zm3.78,9.3-2.64-6.8-2.65,6.8Z" transform="translate(-349.11 -786)"/><path d="M778.92,833.07h2.19c.65,2.77,2.58,3.55,5.14,3.55,2.08,0,3.42-.78,3.42-2.39s-1.57-2.29-2.69-2.61-2.31-.52-3.8-1c-1.95-.69-3.36-1.63-3.36-3.9,0-3.51,3.09-4.72,5.69-4.72,3.68,0,5.65,2.22,5.74,5.33H789.1c-.23-2.77-2.22-3.36-3.82-3.36-1,0-3.29.27-3.29,2.48,0,1.17.63,1.74,2,2.22a23.62,23.62,0,0,0,2.9.8c1.3.31,4.81,1,4.81,4.58,0,3.17-1.94,4.57-5.76,4.57C781.21,838.57,779.17,836.05,778.92,833.07Z" transform="translate(-349.11 -786)"/><path d="M805.38,836.22v2h-11v-16H805v2h-8.61v4.53h7.77v2h-7.77v5.35Z" transform="translate(-349.11 -786)"/><line class="cls-6" x1="214.17" y1="239" x2="214.17" y2="1.3"/><line class="cls-6" x1="559.37" y1="240" x2="559.04" y2="83"/><circle class="cls-5" cx="559.39" cy="185" r="25"/><g id="Gruppe_74" data-name="Gruppe 74"><path id="Pfad_33" data-name="Pfad 33" class="cls-6" d="M944.92,945.68l-37.6,37.6L896,971.94" transform="translate(-349.11 -786)"/></g><path d="M967.83,1292.62h5.58c3.32,0,5.33,1.36,5.33,4.26,0,3.26-2.73,4.08-6.25,4.08l6.91,7.62h-2.61l-6.88-7.62v7.62h-2.08Zm5.83,6.55c1.51,0,3-.73,3-2.31,0-1.41-1-2.35-3.29-2.35h-3.44v4.66Z" transform="translate(-349.11 -786)"/><path d="M992.6,1306.56v2h-11v-16h10.69v2h-8.61v4.54h7.77v2h-7.77v5.35Z" transform="translate(-349.11 -786)"/><path d="M994.33,1292.62h2.35l5.1,13.46,5.1-13.46h2.36l-6.32,16h-2.27Z" transform="translate(-349.11 -786)"/><path d="M1011,1292.62h2.1v16H1011Z" transform="translate(-349.11 -786)"/><path d="M1027.53,1306.56v2h-11v-16h10.69v2h-8.61v4.54h7.77v2h-7.77v5.35Z" transform="translate(-349.11 -786)"/><path d="M1029.25,1292.62h2.35l3.23,13.46,4.14-13.46h2.69l4.14,13.46,3.23-13.46h2.35l-4.43,16h-2.29l-4.34-13.78-4.35,13.78h-2.29Z" transform="translate(-349.11 -786)"/><path d="M1064.45,1294.63v13.95h-2.1v-13.95h-4.9v-2h11.85l0,2Z" transform="translate(-349.11 -786)"/><path d="M1082.73,1306.56v2h-11v-16h10.69v2h-8.61v4.54h7.77v2h-7.77v5.35Z" transform="translate(-349.11 -786)"/><path d="M1091.43,1292.62h2.27l6.32,16h-2.29L1096,1304h-6.8l-1.76,4.62h-2.29Zm3.78,9.3-2.65-6.8-2.64,6.8Z" transform="translate(-349.11 -786)"/><path d="M1101.76,1292.62h2.31l4.77,13.54,4.76-13.54h2.31v16h-2.08v-11.36l-3.86,11.36h-2.27l-3.86-11.36v11.36h-2.08Z" transform="translate(-349.11 -786)"/><path d="M967.83,1316.62h6c3,0,4.93,1.45,4.93,4.47,0,2.65-1.63,4.39-5,4.39h-3.88v7.1h-2.08Zm5.54,7c2,0,3.3-.8,3.3-2.52,0-1.53-1-2.56-3.3-2.56h-3.46v5.08Z" transform="translate(-349.11 -786)"/><path d="M981.6,1316.62h5.59c3.31,0,5.33,1.36,5.33,4.26,0,3.26-2.73,4.08-6.26,4.08l6.91,7.62h-2.6l-6.89-7.62v7.62H981.6Zm5.84,6.55c1.51,0,3-.73,3-2.31,0-1.41-1-2.35-3.3-2.35h-3.44v4.66Z" transform="translate(-349.11 -786)"/><path d="M994.06,1324.6c0-5,3.06-8.32,7.7-8.32s7.66,3.34,7.66,8.32-3,8.31-7.66,8.31S994.06,1329.57,994.06,1324.6Zm13.16,0c0-3.76-2.16-6.32-5.48-6.32s-5.48,2.56-5.48,6.32,2.16,6.32,5.48,6.32S1007.22,1328.36,1007.22,1324.6Z" transform="translate(-349.11 -786)"/><path d="M1017.09,1318.63v13.95H1015v-13.95h-4.89v-2h11.84l0,2Z" transform="translate(-349.11 -786)"/><path d="M1022.64,1324.6c0-5,3.06-8.32,7.7-8.32s7.66,3.34,7.66,8.32-3,8.31-7.66,8.31S1022.64,1329.57,1022.64,1324.6Zm13.16,0c0-3.76-2.16-6.32-5.48-6.32s-5.48,2.56-5.48,6.32,2.16,6.32,5.48,6.32S1035.8,1328.36,1035.8,1324.6Z" transform="translate(-349.11 -786)"/><path d="M1045.67,1318.63v13.95h-2.1v-13.95h-4.89v-2h11.84l0,2Z" transform="translate(-349.11 -786)"/><path d="M1057.6,1327.05l-5.56-10.43h2.39l4.24,8.48,4.22-8.48h2.39l-5.58,10.43v5.53h-2.1Z" transform="translate(-349.11 -786)"/><path d="M1067.6,1316.62h6c3,0,4.93,1.45,4.93,4.47,0,2.65-1.63,4.39-5,4.39h-3.89v7.1h-2.07Zm5.54,7c2,0,3.3-.8,3.3-2.52,0-1.53-1-2.56-3.3-2.56h-3.47v5.08Z" transform="translate(-349.11 -786)"/><path d="M1092.42,1330.56v2h-11.05v-16h10.69v2h-8.61v4.54h7.77v2h-7.77v5.35Z" transform="translate(-349.11 -786)"/><path d="M1103.69,1318.63v4.54h7.37v2h-7.37v7.37h-2.1v-16h10.5v2Z" transform="translate(-349.11 -786)"/><path d="M1114.32,1325v-8.38h2.1v8.27c0,3.4.29,6,3.91,6s3.9-2.63,3.9-6v-8.27h2.1V1325c0,4.15-.5,7.91-6,7.91S1114.32,1329.13,1114.32,1325Z" transform="translate(-349.11 -786)"/><path d="M1129.54,1316.62h2.08l7.84,12.7v-12.7h2.09v16h-2.2l-7.71-12.16v12.16h-2.1Z" transform="translate(-349.11 -786)"/><path d="M1145.38,1332.58l0-16h5.82c4.36,0,7.22,2.54,7.22,8.06,0,4.83-2.19,7.94-6.85,7.92Zm5.79-2c3,0,5.06-1.87,5.06-6,0-3.66-1.61-6-5.06-6h-3.69v12Z" transform="translate(-349.11 -786)"/><line class="cls-2" x1="603.92" y1="547" x2="603.92" y2="241"/><line class="cls-2" x1="713.04" y1="464" x2="712.81" y2="240"/><path d="M1077.05,1212.66h5.59c3.32,0,5.33,1.37,5.33,4.27,0,3.25-2.73,4.07-6.26,4.07l6.91,7.62H1086l-6.89-7.62v7.62h-2.08Zm5.84,6.55c1.51,0,3-.73,3-2.3,0-1.41-1-2.36-3.29-2.36h-3.45v4.66Z" transform="translate(-349.11 -786)"/><path d="M1102,1226.61v2h-11v-16h10.68v2h-8.6v4.53h7.76v2h-7.76v5.36Z" transform="translate(-349.11 -786)"/><path d="M1104,1212.66h2.36l5.1,13.46,5.1-13.46h2.35l-6.32,16h-2.27Z" transform="translate(-349.11 -786)"/><path d="M1120.84,1212.66h2.1v16h-2.1Z" transform="translate(-349.11 -786)"/><path d="M1137.59,1226.61v2h-11v-16h10.69v2h-8.61v4.53h7.77v2h-7.77v5.36Z" transform="translate(-349.11 -786)"/><path d="M1139.53,1212.66h2.35l3.23,13.46,4.14-13.46h2.69l4.13,13.46,3.24-13.46h2.35l-4.43,16h-2.29l-4.35-13.77-4.34,13.77H1144Z" transform="translate(-349.11 -786)"/><path d="M1075.4,1247.88h2.12c.25,2,1.28,3.08,3.23,3.08,2.83,0,2.94-2.16,2.94-6.32v-8h2.14v8c0,4.77-.29,8.28-4.93,8.28C1077.58,1253,1075.63,1251.19,1075.4,1247.88Z" transform="translate(-349.11 -786)"/><path d="M1089.44,1245v-8.38h2.1v8.28c0,3.4.3,6,3.91,6s3.9-2.62,3.9-6v-8.28h2.1V1245c0,4.16-.5,7.92-6,7.92S1089.44,1249.18,1089.44,1245Z" transform="translate(-349.11 -786)"/><path d="M1104.88,1236.66h5.58c3.32,0,5.34,1.37,5.34,4.27,0,3.25-2.73,4.07-6.26,4.07l6.91,7.62h-2.61L1107,1245v7.62h-2.08Zm5.83,6.55c1.52,0,3-.73,3-2.3,0-1.41-1-2.36-3.3-2.36H1107v4.66Z" transform="translate(-349.11 -786)"/><path d="M1122.24,1247.1l-5.56-10.44h2.39l4.25,8.49,4.22-8.49h2.39l-5.59,10.44v5.52h-2.1Z" transform="translate(-349.11 -786)"/><path d="M1185.61,1316.68h5.58c3.32,0,5.34,1.36,5.34,4.26,0,3.25-2.73,4.07-6.26,4.07l6.91,7.62h-2.61l-6.88-7.62v7.62h-2.08Zm5.84,6.55c1.51,0,3-.74,3-2.31,0-1.41-1-2.35-3.3-2.35h-3.44v4.66Z" transform="translate(-349.11 -786)"/><path d="M1210.6,1330.62v2h-11v-16h10.69v2h-8.61v4.54h7.77v2h-7.77v5.36Z" transform="translate(-349.11 -786)"/><path d="M1212.53,1316.68h2.35l5.1,13.45,5.11-13.45h2.35l-6.32,16h-2.27Z" transform="translate(-349.11 -786)"/><path d="M1229.39,1316.68h2.1v16h-2.1Z" transform="translate(-349.11 -786)"/><path d="M1246.15,1330.62v2H1235.1v-16h10.69v2h-8.61v4.54H1245v2h-7.77v5.36Z" transform="translate(-349.11 -786)"/><path d="M1248.08,1316.68h2.35l3.24,13.45,4.13-13.45h2.69l4.14,13.45,3.23-13.45h2.35l-4.43,16h-2.29l-4.34-13.77-4.35,13.77h-2.29Z" transform="translate(-349.11 -786)"/><path d="M1278.15,1316.68h5.59c3.09,0,5.33,1.36,5.33,4.24a3.3,3.3,0,0,1-2.24,3.15,3.87,3.87,0,0,1,3.08,4c0,2.75-1.68,4.55-5.14,4.55h-6.62Zm5.19,6.55c2.27,0,3.65-.72,3.65-2.23s-1-2.43-3.27-2.43h-3.49v4.66Zm.78,7.51c2.16,0,3.71-.9,3.71-2.85,0-1.68-1.34-2.77-3.9-2.77h-3.7v5.62Z" transform="translate(-349.11 -786)"/><path d="M1293,1316.68h2.31l4.77,13.54,4.76-13.54h2.31v16h-2.08v-11.35l-3.86,11.35h-2.27l-3.86-11.35v11.35H1293Z" transform="translate(-349.11 -786)"/><path d="M1311.17,1316.68h5.58c3.09,0,5.33,1.36,5.33,4.24a3.3,3.3,0,0,1-2.24,3.15,3.87,3.87,0,0,1,3.08,4c0,2.75-1.68,4.55-5.14,4.55h-6.61Zm5.18,6.55c2.27,0,3.66-.72,3.66-2.23s-1-2.43-3.28-2.43h-3.49v4.66Zm.78,7.51c2.16,0,3.72-.9,3.72-2.85,0-1.68-1.35-2.77-3.91-2.77h-3.7v5.62Z" transform="translate(-349.11 -786)"/><path d="M1328.09,1318.69v4.54h7.37v2h-7.37v7.37H1326v-16h10.5v2Z" transform="translate(-349.11 -786)"/><path d="M1225.49,1213.47h2.31l4.77,13.54,4.76-13.54h2.31v16h-2.07v-11.36l-3.87,11.36h-2.27l-3.86-11.36v11.36h-2.08Z" transform="translate(-349.11 -786)"/><path d="M1242.73,1213.47h2.1v16h-2.1Z" transform="translate(-349.11 -786)"/><path d="M1253.46,1215.49v13.94h-2.1v-13.94h-4.89v-2h11.84l0,2Z" transform="translate(-349.11 -786)"/><path d="M1265.94,1215.49v13.94h-2.1v-13.94h-4.9v-2h11.85l0,2Z" transform="translate(-349.11 -786)"/><path d="M1283.91,1227.41v2h-11v-16h10.68v2H1275V1220h7.76v2H1275v5.35Z" transform="translate(-349.11 -786)"/><path d="M1286,1213.47h2.1v16H1286Z" transform="translate(-349.11 -786)"/><path d="M1301.61,1227.41v2h-10.47v-16h2.08v13.94Z" transform="translate(-349.11 -786)"/><path d="M1303.11,1221.85v-8.38h2.1v8.27c0,3.41.29,6,3.9,6s3.91-2.62,3.91-6v-8.27h2.1v8.38c0,4.16-.51,7.92-6,7.92S1303.11,1226,1303.11,1221.85Z" transform="translate(-349.11 -786)"/><path d="M1318,1213.47h2.08l7.83,12.7v-12.7h2.1v16h-2.21l-7.7-12.16v12.16H1318Z" transform="translate(-349.11 -786)"/><path d="M1332.57,1221.43c0-5,3-8.29,7.58-8.29,3.74,0,6.59,2.24,7.14,5.6h-2.18a4.87,4.87,0,0,0-5-3.61c-3.19,0-5.29,2.52-5.29,6.34s2.37,6.3,6,6.3a5.82,5.82,0,0,0,4.43-1.85v-2.62h-5.56v-2h7.62v5.46a8.05,8.05,0,0,1-6.53,3C1335.83,1229.77,1332.57,1226.43,1332.57,1221.43Z" transform="translate(-349.11 -786)"/><path d="M1360.1,1213.47h2.27l6.32,16h-2.29l-1.76-4.62h-6.81l-1.76,4.62h-2.29Zm3.78,9.3-2.65-6.8-2.64,6.8Z" transform="translate(-349.11 -786)"/><path d="M1370.12,1213.47h2.08l7.83,12.7v-12.7h2.1v16h-2.21l-7.7-12.16v12.16h-2.1Z" transform="translate(-349.11 -786)"/><path d="M1390.68,1229.43l0-16h5.81c4.37,0,7.23,2.54,7.23,8.07,0,4.82-2.19,7.93-6.85,7.91Zm5.79-2c3,0,5.06-1.86,5.06-6,0-3.65-1.61-6-5.06-6h-3.69v12Z" transform="translate(-349.11 -786)"/><path d="M1405.44,1213.47h2.1v16h-2.1Z" transform="translate(-349.11 -786)"/><path d="M1421.67,1227.41v2h-11v-16h10.68v2h-8.6V1220h7.76v2h-7.76v5.35Z" transform="translate(-349.11 -786)"/><path d="M1227.59,1239.49V1244H1235v2h-7.37v7.37h-2.1v-16H1236v2Z" transform="translate(-349.11 -786)"/><path d="M1237.48,1237.47h2.1v16h-2.1Z" transform="translate(-349.11 -786)"/><path d="M1242.67,1237.47h2.08l7.83,12.7v-12.7h2.1v16h-2.2l-7.71-12.16v12.16h-2.1Z" transform="translate(-349.11 -786)"/><path d="M1262.43,1237.47h2.27l6.32,16h-2.29l-1.77-4.62h-6.8l-1.76,4.62h-2.29Zm3.78,9.3-2.65-6.8-2.64,6.8Z" transform="translate(-349.11 -786)"/><path d="M1282.92,1251.41v2h-10.47v-16h2.08v13.94Z" transform="translate(-349.11 -786)"/><path d="M1284.35,1237.47h2.1v16h-2.1Z" transform="translate(-349.11 -786)"/><path d="M1287.76,1248.26h2.18c.65,2.78,2.58,3.55,5.14,3.55,2.08,0,3.43-.77,3.43-2.39s-1.58-2.29-2.69-2.6-2.31-.53-3.8-1.06c-2-.69-3.36-1.63-3.36-3.9,0-3.51,3.09-4.72,5.69-4.72,3.67,0,5.65,2.22,5.73,5.33h-2.14c-.23-2.77-2.23-3.36-3.82-3.36-1,0-3.3.27-3.3,2.48,0,1.17.63,1.74,2,2.22a22.24,22.24,0,0,0,2.89.8c1.31.31,4.81,1,4.81,4.58,0,3.17-1.93,4.57-5.75,4.57C1290.05,1253.76,1288,1251.25,1287.76,1248.26Z" transform="translate(-349.11 -786)"/><path d="M1308.19,1239.49v13.94h-2.1v-13.94h-4.89v-2H1313l0,2Z" transform="translate(-349.11 -786)"/><path d="M1315,1245.47l2.82-3.06-3.59-1.47.6-1.28,3.3,1.7-.17-3.89h1.41l-.17,3.89,3.3-1.7.61,1.28-3.57,1.47,2.81,3.06-1.09.9-2.58-3.31-2.59,3.31Z" transform="translate(-349.11 -786)"/><path d="M1325.26,1237.47h2.1v16h-2.1Z" transform="translate(-349.11 -786)"/><path d="M1330.45,1237.47h2.08l7.83,12.7v-12.7h2.1v16h-2.21l-7.7-12.16v12.16h-2.1Z" transform="translate(-349.11 -786)"/><path d="M1346,1237.47h2.08l7.83,12.7v-12.7h2.1v16h-2.21l-7.7-12.16v12.16H1346Z" transform="translate(-349.11 -786)"/><path d="M1372.53,1251.41v2h-11v-16h10.68v2h-8.6V1244h7.76v2h-7.76v5.35Z" transform="translate(-349.11 -786)"/><path d="M1375,1237.47h2.08l7.83,12.7v-12.7h2.1v16h-2.2l-7.71-12.16v12.16H1375Z" transform="translate(-349.11 -786)"/><path d="M1462.53,903.42h2.27l6.32,16h-2.29l-1.76-4.61h-6.81l-1.76,4.61h-2.29Zm3.78,9.3-2.65-6.8-2.64,6.8Z" transform="translate(-349.11 -786)"/><path d="M1473.07,903.42h2.08l7.83,12.7v-12.7h2.1v16h-2.2l-7.71-12.15v12.15h-2.1Z" transform="translate(-349.11 -786)"/><path d="M1494.66,905.43v13.94h-2.1V905.43h-4.89v-2h11.84l0,2Z" transform="translate(-349.11 -786)"/><path d="M1502.12,903.42h5.58c3.32,0,5.33,1.36,5.33,4.26,0,3.25-2.73,4.07-6.25,4.07l6.9,7.62h-2.6l-6.89-7.62v7.62h-2.07ZM1508,910c1.51,0,3-.74,3-2.31,0-1.41-1-2.35-3.29-2.35h-3.45V910Z" transform="translate(-349.11 -786)"/><path d="M1520.93,903.42h2.27l6.32,16h-2.29l-1.76-4.61h-6.81l-1.76,4.61h-2.29Zm3.78,9.3-2.65-6.8-2.64,6.8Z" transform="translate(-349.11 -786)"/><path d="M1530.61,911.37c0-5,3.05-8.29,7.58-8.29,3.74,0,6.6,2.25,7.14,5.61h-2.18a4.87,4.87,0,0,0-5-3.61c-3.19,0-5.29,2.52-5.29,6.34s2.37,6.3,6,6.3a5.86,5.86,0,0,0,4.43-1.85v-2.63h-5.56v-2h7.62v5.46a8.08,8.08,0,0,1-6.53,3C1533.87,919.71,1530.61,916.37,1530.61,911.37Z" transform="translate(-349.11 -786)"/><path d="M1547.39,914.21h2.18c.66,2.77,2.59,3.55,5.15,3.55,2.08,0,3.42-.78,3.42-2.4s-1.57-2.28-2.69-2.6-2.3-.52-3.8-1c-2-.69-3.36-1.64-3.36-3.9,0-3.51,3.09-4.73,5.69-4.73,3.68,0,5.65,2.23,5.74,5.33h-2.15c-.23-2.77-2.22-3.36-3.82-3.36-1,0-3.29.28-3.29,2.48,0,1.18.63,1.75,2,2.23a23.62,23.62,0,0,0,2.9.8c1.3.31,4.81,1,4.81,4.57,0,3.17-1.94,4.58-5.76,4.58C1549.68,919.71,1547.64,917.19,1547.39,914.21Z" transform="translate(-349.11 -786)"/><path d="M1564.9,905.43V910h7.37v2h-7.37v7.37h-2.09v-16h10.49v2Z" transform="translate(-349.11 -786)"/><path d="M1575.74,903.42h5.59c3.31,0,5.33,1.36,5.33,4.26,0,3.25-2.73,4.07-6.26,4.07l6.91,7.62h-2.6l-6.89-7.62v7.62h-2.08Zm5.84,6.55c1.51,0,3-.74,3-2.31,0-1.41-1-2.35-3.3-2.35h-3.44V910Z" transform="translate(-349.11 -786)"/><path d="M1589.27,903.42h2.09v16h-2.09Z" transform="translate(-349.11 -786)"/><path d="M1593.19,914.21h2.19c.65,2.77,2.58,3.55,5.14,3.55,2.08,0,3.42-.78,3.42-2.4s-1.57-2.28-2.69-2.6-2.3-.52-3.8-1c-2-.69-3.35-1.64-3.35-3.9,0-3.51,3.08-4.73,5.69-4.73,3.67,0,5.64,2.23,5.73,5.33h-2.14c-.23-2.77-2.23-3.36-3.83-3.36-1,0-3.29.28-3.29,2.48,0,1.18.63,1.75,2,2.23a23.62,23.62,0,0,0,2.9.8c1.3.31,4.81,1,4.81,4.57,0,3.17-1.93,4.58-5.76,4.58C1595.48,919.71,1593.44,917.19,1593.19,914.21Z" transform="translate(-349.11 -786)"/><path d="M1614.15,905.43v13.94h-2.1V905.43h-4.89v-2H1619l0,2Z" transform="translate(-349.11 -786)"/><path d="M1503.19,1213h5.59c3.08,0,5.33,1.36,5.33,4.24a3.3,3.3,0,0,1-2.25,3.15,3.86,3.86,0,0,1,3.09,4c0,2.75-1.68,4.55-5.14,4.55h-6.62Zm5.19,6.55c2.27,0,3.65-.72,3.65-2.23s-1-2.44-3.27-2.44h-3.49v4.67Zm.77,7.51c2.17,0,3.72-.9,3.72-2.85,0-1.68-1.34-2.78-3.9-2.78h-3.7v5.63Z" transform="translate(-349.11 -786)"/><path d="M1518,1213h2.31l4.76,13.54,4.77-13.54h2.31v16h-2.08v-11.36l-3.86,11.36H1524l-3.86-11.36V1229H1518Z" transform="translate(-349.11 -786)"/><path d="M1536.2,1213h5.59c3.08,0,5.33,1.36,5.33,4.24a3.3,3.3,0,0,1-2.25,3.15,3.86,3.86,0,0,1,3.09,4c0,2.75-1.68,4.55-5.14,4.55h-6.62Zm5.19,6.55c2.27,0,3.65-.72,3.65-2.23s-1-2.44-3.27-2.44h-3.49v4.67Zm.78,7.51c2.16,0,3.71-.9,3.71-2.85,0-1.68-1.34-2.78-3.9-2.78h-3.7v5.63Z" transform="translate(-349.11 -786)"/><path d="M1553.13,1215v4.54h7.37v2h-7.37V1229H1551v-16h10.5v2Z" transform="translate(-349.11 -786)"/><path d="M1569.53,1213h6c3,0,4.93,1.44,4.93,4.47,0,2.64-1.64,4.38-5,4.38h-3.88v7.1h-2.08Zm5.54,7c2,0,3.3-.8,3.3-2.52,0-1.54-1-2.57-3.3-2.57h-3.46V1220Z" transform="translate(-349.11 -786)"/><path d="M1583.52,1213h5.58c3.32,0,5.33,1.36,5.33,4.26,0,3.25-2.73,4.07-6.25,4.07l6.91,7.62h-2.61l-6.88-7.62V1229h-2.08Zm5.83,6.55c1.51,0,3-.74,3-2.31,0-1.41-1-2.36-3.29-2.36h-3.44v4.67Z" transform="translate(-349.11 -786)"/><path d="M1597.46,1221.4V1213h2.1v8.27c0,3.4.29,6,3.9,6s3.91-2.62,3.91-6V1213h2.1v8.37c0,4.16-.5,7.92-6,7.92S1597.46,1225.54,1597.46,1221.4Zm3.42-13.31h1.74V1210h-1.74Zm3.32,0h1.74V1210h-1.74Z" transform="translate(-349.11 -786)"/><path d="M1615,1215v4.54h7.37v2H1615V1229h-2.09v-16h10.49v2Z" transform="translate(-349.11 -786)"/><path d="M1631.37,1215V1229h-2.1V1215h-4.89v-2h11.84l0,2Z" transform="translate(-349.11 -786)"/><path d="M1503.19,1253l0-16H1509c4.37,0,7.22,2.55,7.22,8.07,0,4.83-2.18,7.93-6.84,7.91Zm5.8-2c3,0,5.06-1.87,5.06-6,0-3.65-1.62-6-5.06-6h-3.7v12Z" transform="translate(-349.11 -786)"/><path d="M1518.48,1237h2.1v16h-2.1Z" transform="translate(-349.11 -786)"/><path d="M1535.24,1251v2h-11v-16h10.69v2h-8.61v4.54H1534v2h-7.77V1251Z" transform="translate(-349.11 -786)"/><path d="M1549.71,1237H1552l6.32,16H1556l-1.76-4.62h-6.8l-1.77,4.62h-2.28Zm3.77,9.31-2.64-6.81-2.65,6.81Z" transform="translate(-349.11 -786)"/><path d="M1560.25,1237h2.08l7.83,12.71V1237h2.1v16h-2.21l-7.7-12.15V1253h-2.1Z" transform="translate(-349.11 -786)"/><path d="M1581.84,1239V1253h-2.1V1239h-4.9v-2h11.85l0,2Z" transform="translate(-349.11 -786)"/><path d="M1589.29,1237h5.59c3.31,0,5.33,1.37,5.33,4.27,0,3.25-2.73,4.07-6.26,4.07l6.91,7.62h-2.6l-6.89-7.62V1253h-2.08Zm5.84,6.56c1.51,0,3-.74,3-2.31,0-1.41-1-2.36-3.3-2.36h-3.44v4.67Z" transform="translate(-349.11 -786)"/><path d="M1608.11,1237h2.26l6.32,16h-2.29l-1.76-4.62h-6.8l-1.77,4.62h-2.28Zm3.78,9.31-2.65-6.81-2.65,6.81Zm-5.19-14.24h1.74V1234h-1.74Zm3.32,0h1.74V1234H1610Z" transform="translate(-349.11 -786)"/><path d="M1617.79,1245c0-5,3-8.29,7.58-8.29,3.73,0,6.59,2.24,7.14,5.6h-2.19a4.86,4.86,0,0,0-5-3.61c-3.19,0-5.29,2.52-5.29,6.34s2.37,6.3,6,6.3a5.87,5.87,0,0,0,4.43-1.84v-2.63h-5.57v-2h7.63v5.46a8.07,8.07,0,0,1-6.53,3C1621,1253.32,1617.79,1250,1617.79,1245Z" transform="translate(-349.11 -786)"/><path d="M1646.14,1251v2h-11.05v-16h10.69v2h-8.61v4.54h7.77v2h-7.77V1251Z" transform="translate(-349.11 -786)"/><path d="M1814.75,1224.57h2.19c.65,2.77,2.58,3.55,5.14,3.55,2.08,0,3.42-.78,3.42-2.4s-1.57-2.28-2.69-2.6-2.31-.52-3.8-1c-2-.69-3.36-1.64-3.36-3.9,0-3.51,3.09-4.73,5.69-4.73,3.68,0,5.65,2.23,5.74,5.34h-2.14c-.24-2.78-2.23-3.36-3.83-3.36-1,0-3.29.27-3.29,2.47,0,1.18.63,1.75,2,2.23a23.62,23.62,0,0,0,2.9.8c1.3.31,4.81,1,4.81,4.57,0,3.17-1.94,4.58-5.76,4.58C1817,1230.07,1815,1227.55,1814.75,1224.57Z" transform="translate(-349.11 -786)"/><path d="M1835.71,1215.79v13.94h-2.1v-13.94h-4.89v-2h11.84l0,2Z" transform="translate(-349.11 -786)"/><path d="M1846.29,1213.78h2.27l6.32,16h-2.29l-1.76-4.61H1844l-1.76,4.61H1840Zm3.78,9.3-2.64-6.8-2.65,6.8Z" transform="translate(-349.11 -786)"/><path d="M1856.84,1213.78h5.58c3.32,0,5.33,1.36,5.33,4.26,0,3.25-2.73,4.07-6.25,4.07l6.9,7.62h-2.6l-6.89-7.62v7.62h-2.07Zm5.83,6.55c1.51,0,3-.74,3-2.31,0-1.41-1-2.35-3.29-2.35h-3.45v4.66Z" transform="translate(-349.11 -786)"/><path d="M1876.32,1215.79v13.94h-2.1v-13.94h-4.89v-2h11.84l0,2Z" transform="translate(-349.11 -786)"/><path d="M1818.22,1239.79v4.54h7.37v2h-7.37v7.36h-2.1v-16h10.49v2Z" transform="translate(-349.11 -786)"/><path d="M1827.77,1245.76c0-5,3.07-8.32,7.71-8.32s7.66,3.34,7.66,8.32-3,8.31-7.66,8.31S1827.77,1250.73,1827.77,1245.76Zm13.17,0c0-3.76-2.17-6.32-5.48-6.32s-5.48,2.56-5.48,6.32,2.16,6.32,5.48,6.32S1840.94,1249.51,1840.94,1245.76Zm-8-12.92h1.74v1.89h-1.74Zm3.31,0H1838v1.89h-1.75Z" transform="translate(-349.11 -786)"/><path d="M1845.9,1237.78h5.58c3.32,0,5.33,1.36,5.33,4.26,0,3.25-2.73,4.07-6.25,4.07l6.9,7.62h-2.6l-6.89-7.62v7.62h-2.07Zm5.83,6.55c1.51,0,3-.74,3-2.31,0-1.41-1-2.35-3.29-2.35H1848v4.66Z" transform="translate(-349.11 -786)"/><path d="M1859.84,1253.73l0-16h5.82c4.36,0,7.22,2.54,7.22,8.06,0,4.83-2.19,7.94-6.85,7.92Zm5.79-2c3,0,5.06-1.87,5.06-6,0-3.65-1.61-6-5.06-6h-3.69v12Z" transform="translate(-349.11 -786)"/><path d="M1886.59,1251.72v2h-11v-16h10.68v2h-8.6v4.54h7.76v2h-7.76v5.35Z" transform="translate(-349.11 -786)"/><path d="M1889.57,1237.78h5.59c3.32,0,5.33,1.36,5.33,4.26,0,3.25-2.73,4.07-6.25,4.07l6.9,7.62h-2.6l-6.89-7.62v7.62h-2.08Zm5.84,6.55c1.51,0,3-.74,3-2.31,0-1.41-1-2.35-3.29-2.35h-3.45v4.66Z" transform="translate(-349.11 -786)"/><path d="M1903.52,1237.78h6c3,0,4.94,1.45,4.94,4.47,0,2.64-1.64,4.39-5,4.39h-3.88v7.09h-2.08Zm5.54,7c2,0,3.3-.8,3.3-2.52,0-1.53-1-2.56-3.3-2.56h-3.46v5.08Z" transform="translate(-349.11 -786)"/><path d="M1929.51,1237.78v16h-2.1v-7.36h-7.81v7.36h-2.1v-16h2.1v6.55h7.81v-6.55Z" transform="translate(-349.11 -786)"/><path d="M1937.79,1237.78h2.27l6.32,16h-2.29l-1.77-4.61h-6.8l-1.76,4.61h-2.29Zm3.78,9.3-2.65-6.8-2.64,6.8Z" transform="translate(-349.11 -786)"/><path d="M1947,1248.57h2.18c.65,2.77,2.58,3.55,5.14,3.55,2.08,0,3.43-.78,3.43-2.4s-1.58-2.28-2.69-2.6-2.31-.52-3.8-1c-2-.69-3.36-1.64-3.36-3.9,0-3.51,3.09-4.73,5.69-4.73,3.67,0,5.65,2.23,5.73,5.33h-2.14c-.23-2.77-2.23-3.35-3.82-3.35-1,0-3.3.27-3.3,2.47,0,1.18.63,1.74,2,2.23a23,23,0,0,0,2.89.8c1.31.31,4.81,1,4.81,4.57,0,3.17-1.93,4.58-5.75,4.58C1949.26,1254.07,1947.22,1251.55,1947,1248.57Z" transform="translate(-349.11 -786)"/><path d="M1973.42,1251.72v2h-11v-16h10.69v2h-8.61v4.54h7.77v2h-7.77v5.35Z" transform="translate(-349.11 -786)"/><circle class="cls-8" cx="2145.54" cy="241.05" r="6.25"/><circle class="cls-8" cx="2326.54" cy="240.05" r="6.25"/><circle class="cls-8" cx="2501.21" cy="240.59" r="6.25"/><circle class="cls-8" cx="2672.21" cy="241.18" r="6.25"/><circle class="cls-8" cx="2885.81" cy="241.08" r="6.25"/><line class="cls-4" x1="2501" y1="477" x2="2501" y2="344"/><path d="M2873.66,1227.17v2h-11v-16h10.68v2h-8.61v4.53h7.77v2h-7.77v5.35Z" transform="translate(-349.11 -786)"/><path d="M2876.64,1213.23h2.08l7.83,12.7v-12.7h2.1v16h-2.2l-7.71-12.16v12.16h-2.1Z" transform="translate(-349.11 -786)"/><path d="M2892.69,1229.19l0-16h5.81c4.37,0,7.23,2.54,7.23,8.06,0,4.83-2.19,7.94-6.85,7.92Zm5.79-2c3.05,0,5.06-1.87,5.06-6,0-3.65-1.61-6-5.06-6h-3.69v12Z" transform="translate(-349.11 -786)"/><path d="M2919.44,1227.17v2h-11.05v-16h10.69v2h-8.61v4.53h7.77v2h-7.77v5.35Z" transform="translate(-349.11 -786)"/><path d="M2864.71,1239.25v4.53h7.37v2h-7.37v7.37h-2.09v-16h10.49v2Z" transform="translate(-349.11 -786)"/><path d="M2874.27,1245.21c0-5,3.07-8.32,7.71-8.32s7.66,3.34,7.66,8.32-3,8.31-7.66,8.31S2874.27,1250.19,2874.27,1245.21Zm13.17,0c0-3.76-2.17-6.32-5.48-6.32s-5.49,2.56-5.49,6.32,2.17,6.32,5.49,6.32S2887.44,1249,2887.44,1245.21Zm-8-12.91h1.75v1.89h-1.75Zm3.32,0h1.74v1.89h-1.74Z" transform="translate(-349.11 -786)"/><path d="M2892.39,1237.23H2898c3.31,0,5.33,1.37,5.33,4.26,0,3.26-2.73,4.08-6.26,4.08l6.91,7.62h-2.6l-6.89-7.62v7.62h-2.08Zm5.84,6.55c1.51,0,3-.73,3-2.31,0-1.41-1-2.35-3.3-2.35h-3.44v4.66Z" transform="translate(-349.11 -786)"/><path d="M2906.34,1253.19l0-16h5.81c4.37,0,7.23,2.54,7.23,8.06,0,4.83-2.19,7.94-6.85,7.92Zm5.79-2c3,0,5.06-1.87,5.06-6,0-3.65-1.62-6-5.06-6h-3.69v12Z" transform="translate(-349.11 -786)"/><path d="M2933.09,1251.17v2H2922v-16h10.69v2h-8.61v4.53h7.77v2h-7.77v5.35Z" transform="translate(-349.11 -786)"/><path d="M2936.07,1237.23h5.59c3.31,0,5.33,1.37,5.33,4.26,0,3.26-2.73,4.08-6.26,4.08l6.91,7.62H2945l-6.89-7.62v7.62h-2.08Zm5.84,6.55c1.51,0,3-.73,3-2.31,0-1.41-1-2.35-3.3-2.35h-3.44v4.66Z" transform="translate(-349.11 -786)"/><path d="M2950,1237.23h6c3,0,4.93,1.45,4.93,4.47,0,2.65-1.63,4.39-4.95,4.39h-3.89v7.1H2950Zm5.54,7c2,0,3.3-.8,3.3-2.52,0-1.53-1-2.56-3.3-2.56h-3.47v5.08Z" transform="translate(-349.11 -786)"/><path d="M2976,1237.23v16h-2.1v-7.37h-7.81v7.37H2964v-16h2.1v6.55h7.81v-6.55Z" transform="translate(-349.11 -786)"/><path d="M2984.29,1237.23h2.26l6.33,16h-2.29l-1.77-4.62H2982l-1.76,4.62H2978Zm3.78,9.3-2.65-6.8-2.64,6.8Z" transform="translate(-349.11 -786)"/><path d="M2993.46,1248h2.19c.65,2.77,2.58,3.55,5.14,3.55,2.08,0,3.42-.78,3.42-2.39s-1.57-2.29-2.68-2.61-2.31-.52-3.8-1c-2-.69-3.36-1.63-3.36-3.9,0-3.51,3.08-4.73,5.69-4.73,3.67,0,5.65,2.23,5.73,5.34h-2.14c-.23-2.77-2.23-3.36-3.82-3.36-1,0-3.3.27-3.3,2.48,0,1.17.63,1.74,2,2.22a22,22,0,0,0,2.9.8c1.3.31,4.81,1,4.81,4.58,0,3.17-1.93,4.57-5.75,4.57C2995.75,1253.52,2993.72,1251,2993.46,1248Z" transform="translate(-349.11 -786)"/><path d="M3019.92,1251.17v2h-11v-16h10.68v2H3011v4.53h7.76v2H3011v5.35Z" transform="translate(-349.11 -786)"/><circle class="cls-2" cx="2500.39" cy="369" r="25"/><g id="Gruppe_74-2" data-name="Gruppe 74"><path id="Pfad_33-2" data-name="Pfad 33" class="cls-4" d="M2885.92,1126.68l-37.6,37.6L2837,1152.94" transform="translate(-349.11 -786)"/></g><circle class="cls-5" cx="213.63" cy="104.7" r="25"/><g id="Gruppe_74-3" data-name="Gruppe 74"><path id="Pfad_33-3" data-name="Pfad 33" class="cls-6" d="M562.21,879.36l11.33,11.34L562.21,902" transform="translate(-349.11 -786)"/><line id="Linie_2" data-name="Linie 2" class="cls-6" x1="199.72" y1="104.67" x2="224.43" y2="104.67"/></g><path class="cls-9" d="M547.32,1065.66c0-4.62,2-8.71,6.93-8.71s6.89,4.09,6.89,8.71-2,8.72-6.89,8.72S547.32,1070.29,547.32,1065.66Zm11.64,0c0-3.65-1.45-6.68-4.73-6.68s-4.73,3-4.73,6.68,1.45,6.69,4.73,6.69S559,1069.32,559,1065.66Z" transform="translate(-349.11 -786)"/><path class="cls-9" d="M562.94,1069.27a4.36,4.36,0,0,1,3.06-4.2,3.8,3.8,0,0,1-2.27-3.54c0-2.33,1.7-4.58,6.14-4.58s6.12,2.25,6.12,4.58a3.77,3.77,0,0,1-2.27,3.54,4.33,4.33,0,0,1,3,4.18c0,2.44-1.7,5.13-6.89,5.13S562.94,1071.67,562.94,1069.27Zm11.6,0c0-1.43-1-3-4.69-3s-4.69,1.56-4.69,3,1,3.21,4.69,3.21S574.54,1070.68,574.54,1069.25Zm-.8-7.72c0-1.32-1-2.66-3.89-2.66s-3.89,1.34-3.89,2.66,1,2.66,3.89,2.66S573.74,1062.85,573.74,1061.53Z" transform="translate(-349.11 -786)"/><path class="cls-9" d="M724.31,1063.66c0-4.62,2-8.71,6.93-8.71s6.89,4.09,6.89,8.71-2,8.72-6.89,8.72S724.31,1068.29,724.31,1063.66Zm11.64,0c0-3.65-1.45-6.68-4.73-6.68s-4.73,3-4.73,6.68,1.45,6.69,4.73,6.69S736,1067.32,736,1063.66Z" transform="translate(-349.11 -786)"/><path class="cls-9" d="M740.15,1068.48h2.31c.2,1.21,2,2,3.83,2,3.23,0,5.08-2.26,5.19-5.63a6.77,6.77,0,0,1-5.37,2.31,5.83,5.83,0,0,1-6.18-6.05c0-3.7,2.66-6.14,6.64-6.14,4.32,0,7.18,2.84,7.18,8.23,0,5.55-3,9.2-7.57,9.2C742.85,1072.38,740.46,1070.82,740.15,1068.48Zm11.18-7.43c0-2.47-1.94-4.12-4.71-4.12s-4.54,1.65-4.54,4.12,1.76,4.11,4.54,4.11S751.33,1063.51,751.33,1061.05Z" transform="translate(-349.11 -786)"/><path class="cls-9" d="M908.24,1071.89V1074H894.42v-2.14h5.86v-12.45h-5.2v-2.14h7.33v14.59Z" transform="translate(-349.11 -786)"/><path class="cls-9" d="M910.66,1065.66c0-4.62,2-8.71,6.93-8.71s6.89,4.09,6.89,8.71-2,8.72-6.89,8.72S910.66,1070.29,910.66,1065.66Zm11.64,0c0-3.65-1.45-6.68-4.73-6.68s-4.73,3-4.73,6.68,1.45,6.69,4.73,6.69S922.3,1069.32,922.3,1065.66Z" transform="translate(-349.11 -786)"/><path class="cls-9" d="M1084.05,1071.89V1074h-13.81v-2.14h5.85v-12.45h-5.19v-2.14h7.32v14.59Z" transform="translate(-349.11 -786)"/><path class="cls-9" d="M1100.29,1071.89V1074h-13.82v-2.14h5.86v-12.45h-5.2v-2.14h7.33v14.59Z" transform="translate(-349.11 -786)"/><path class="cls-9" d="M1262.05,1071.89V1074h-13.81v-2.14h5.85v-12.45h-5.19v-2.14h7.32v14.59Z" transform="translate(-349.11 -786)"/><path class="cls-9" d="M1265.35,1071.91a58.49,58.49,0,0,0,6.73-4.57c2-1.59,3.44-2.95,3.44-5,0-1.92-1.41-3.37-4.25-3.37-3.32,0-4.64,2-4.64,4.42a7.67,7.67,0,0,0,.22,1.81h-2.16a7.72,7.72,0,0,1-.22-1.89c0-3.5,1.87-6.32,6.8-6.32,4.38,0,6.4,2.22,6.4,5.39,0,1.92-.72,3.87-4.2,6.56a49.3,49.3,0,0,1-4.49,3h9.31v2.14h-12.94Z" transform="translate(-349.11 -786)"/><path class="cls-9" d="M1428.61,1065.66c0-4.62,2-8.71,6.93-8.71s6.89,4.09,6.89,8.71-2,8.72-6.89,8.72S1428.61,1070.29,1428.61,1065.66Zm11.64,0c0-3.65-1.45-6.68-4.73-6.68s-4.73,3-4.73,6.68,1.45,6.69,4.73,6.69S1440.25,1069.32,1440.25,1065.66Z" transform="translate(-349.11 -786)"/><path class="cls-9" d="M1458.67,1071.89V1074h-13.82v-2.14h5.85v-12.45h-5.19v-2.14h7.32v14.59Z" transform="translate(-349.11 -786)"/><path class="cls-9" d="M1787.71,1063.56c0-4.62,2-8.72,6.93-8.72s6.89,4.1,6.89,8.72-2,8.71-6.89,8.71S1787.71,1068.18,1787.71,1063.56Zm11.64,0c0-3.66-1.45-6.69-4.73-6.69s-4.73,3-4.73,6.69,1.45,6.69,4.73,6.69S1799.35,1067.21,1799.35,1063.56Z" transform="translate(-349.11 -786)"/><path class="cls-9" d="M1803.33,1068.24h2.25c.52,1.48,2.13,2,4.4,2,3.8,0,5-1.58,5-3.43,0-2.38-2-3.55-6.41-3.55h-1.49v-1.91l6.27-4.07h-8.65v-2.13h11.53v2.35l-6.4,4.07h.15c4.42,0,7.13,1.91,7.13,5.1,0,2.6-1.8,5.55-7.17,5.55C1806.39,1072.27,1804,1070.88,1803.33,1068.24Z" transform="translate(-349.11 -786)"/><path class="cls-9" d="M1959.7,1063.56c0-4.62,2-8.72,6.93-8.72s6.89,4.1,6.89,8.72-2,8.71-6.89,8.71S1959.7,1068.18,1959.7,1063.56Zm11.64,0c0-3.66-1.45-6.69-4.73-6.69s-4.73,3-4.73,6.69,1.45,6.69,4.73,6.69S1971.34,1067.21,1971.34,1063.56Z" transform="translate(-349.11 -786)"/><path class="cls-9" d="M1989.14,1068.24h-3.66v3.68h-2.13v-3.68h-8v-2.35l6.64-10.69h2.36l-6.65,10.91h5.68v-4.23h2.13v4.23h3.66Z" transform="translate(-349.11 -786)"/><path class="cls-9" d="M2132.72,1063.56c0-4.62,2-8.72,6.93-8.72s6.88,4.1,6.88,8.72-2,8.71-6.88,8.71S2132.72,1068.18,2132.72,1063.56Zm11.64,0c0-3.66-1.46-6.69-4.74-6.69s-4.73,3-4.73,6.69,1.46,6.69,4.73,6.69S2144.36,1067.21,2144.36,1063.56Z" transform="translate(-349.11 -786)"/><path class="cls-9" d="M2148.33,1068.42h2.32c.15,1.19,2,1.87,4.18,1.87,3.85,0,5.17-2.14,5.17-4.2s-1.48-4.14-4.67-4.14a4.76,4.76,0,0,0-4.46,2.35h-2.47l2.55-9.1h9.11v2.13h-7.7l-1.21,4.36c.95-1.26,2.38-1.72,4.29-1.72,4.73,0,6.71,2.79,6.71,6.14s-1.91,6.16-7.26,6.16C2150.91,1072.27,2148.58,1070.66,2148.33,1068.42Z" transform="translate(-349.11 -786)"/><path class="cls-9" d="M2305.53,1063.56c0-4.62,2-8.72,6.93-8.72s6.89,4.1,6.89,8.72-2,8.71-6.89,8.71S2305.53,1068.18,2305.53,1063.56Zm11.64,0c0-3.66-1.46-6.69-4.73-6.69s-4.73,3-4.73,6.69,1.45,6.69,4.73,6.69S2317.17,1067.21,2317.17,1063.56Z" transform="translate(-349.11 -786)"/><path class="cls-9" d="M2321.15,1064c0-5.19,2.48-9.18,7.32-9.18,3.08,0,5.33,1.61,5.61,4h-2.31c-.17-1.26-1.51-2.09-3.34-2.09-3.06,0-4.53,2.31-4.91,5.52a6.59,6.59,0,0,1,5.22-2.31,5.88,5.88,0,0,1,6.22,6.09c0,3.72-2.68,6.21-6.75,6.21C2324,1072.27,2321.15,1069.58,2321.15,1064Zm11.66,2.07c0-2.49-1.85-4.14-4.6-4.14s-4.53,1.63-4.53,4.14,1.8,4.2,4.53,4.2S2332.81,1068.57,2332.81,1066.09Z" transform="translate(-349.11 -786)"/><path class="cls-9" d="M1602.93,1066c0-4.62,2-8.71,6.94-8.71s6.88,4.09,6.88,8.71-2,8.72-6.88,8.72S1602.93,1070.57,1602.93,1066Zm11.64,0c0-3.65-1.45-6.69-4.73-6.69s-4.73,3-4.73,6.69,1.45,6.69,4.73,6.69S1614.57,1069.61,1614.57,1066Z" transform="translate(-349.11 -786)"/><path class="cls-9" d="M1620.05,1072.2a60.88,60.88,0,0,0,6.73-4.57c2-1.59,3.43-3,3.43-5,0-1.92-1.4-3.37-4.24-3.37-3.32,0-4.64,2-4.64,4.42a7.18,7.18,0,0,0,.22,1.81h-2.16a7.75,7.75,0,0,1-.22-1.9c0-3.49,1.87-6.31,6.8-6.31,4.38,0,6.4,2.22,6.4,5.39,0,1.91-.73,3.87-4.2,6.56a49.3,49.3,0,0,1-4.49,3H1633v2.14h-12.94Z" transform="translate(-349.11 -786)"/><path class="cls-9" d="M2660.3,1063.84c0-4.62,2-8.71,6.93-8.71s6.89,4.09,6.89,8.71-2,8.71-6.89,8.71S2660.3,1068.46,2660.3,1063.84Zm11.64,0c0-3.65-1.45-6.69-4.73-6.69s-4.73,3-4.73,6.69,1.45,6.69,4.73,6.69S2671.94,1067.49,2671.94,1063.84Z" transform="translate(-349.11 -786)"/><path class="cls-9" d="M2675.92,1067.45a4.35,4.35,0,0,1,3.06-4.2,3.83,3.83,0,0,1-2.27-3.55c0-2.33,1.7-4.57,6.14-4.57s6.12,2.24,6.12,4.57a3.78,3.78,0,0,1-2.27,3.55,4.33,4.33,0,0,1,3,4.18c0,2.44-1.69,5.12-6.89,5.12S2675.92,1069.85,2675.92,1067.45Zm11.6,0c0-1.43-1-3-4.69-3s-4.69,1.57-4.69,3,1,3.21,4.69,3.21S2687.52,1068.86,2687.52,1067.43Zm-.79-7.73c0-1.32-1-2.66-3.9-2.66s-3.89,1.34-3.89,2.66,1,2.67,3.89,2.67S2686.73,1061,2686.73,1059.7Z" transform="translate(-349.11 -786)"/><path class="cls-9" d="M2835.11,1063.84c0-4.62,2-8.71,6.94-8.71s6.88,4.09,6.88,8.71-2,8.71-6.88,8.71S2835.11,1068.46,2835.11,1063.84Zm11.64,0c0-3.65-1.45-6.69-4.73-6.69s-4.73,3-4.73,6.69,1.46,6.69,4.73,6.69S2846.75,1067.49,2846.75,1063.84Z" transform="translate(-349.11 -786)"/><path class="cls-9" d="M2851,1068.66h2.31c.2,1.21,2,2,3.83,2,3.24,0,5.09-2.27,5.2-5.63a6.84,6.84,0,0,1-5.37,2.31,5.84,5.84,0,0,1-6.19-6c0-3.7,2.67-6.14,6.65-6.14,4.31,0,7.17,2.83,7.17,8.23s-3,9.19-7.57,9.19C2853.66,1072.55,2851.26,1071,2851,1068.66Zm11.18-7.44c0-2.46-1.93-4.11-4.71-4.11s-4.53,1.65-4.53,4.11,1.76,4.12,4.53,4.12S2862.13,1063.69,2862.13,1061.22Z" transform="translate(-349.11 -786)"/><path class="cls-9" d="M3020,1070.07v2.13h-13.82v-2.13h5.86v-12.46h-5.2v-2.13h7.33v14.59Z" transform="translate(-349.11 -786)"/><path class="cls-9" d="M3022.45,1063.84c0-4.62,2-8.71,6.93-8.71s6.89,4.09,6.89,8.71-2,8.71-6.89,8.71S3022.45,1068.46,3022.45,1063.84Zm11.64,0c0-3.65-1.45-6.69-4.73-6.69s-4.73,3-4.73,6.69,1.45,6.69,4.73,6.69S3034.09,1067.49,3034.09,1063.84Z" transform="translate(-349.11 -786)"/><path class="cls-9" d="M3234.63,1070.25v2.13h-13.81v-2.13h5.85v-12.46h-5.19v-2.13h7.32v14.59Z" transform="translate(-349.11 -786)"/><path class="cls-9" d="M3250.87,1070.25v2.13h-13.82v-2.13h5.86v-12.46h-5.2v-2.13H3245v14.59Z" transform="translate(-349.11 -786)"/><path class="cls-9" d="M2479.36,1063.79c0-4.63,2-8.72,6.93-8.72s6.89,4.09,6.89,8.72-2,8.71-6.89,8.71S2479.36,1068.41,2479.36,1063.79Zm11.64,0c0-3.66-1.45-6.69-4.73-6.69s-4.73,3-4.73,6.69,1.45,6.68,4.73,6.68S2491,1067.44,2491,1063.79Z" transform="translate(-349.11 -786)"/><path class="cls-9" d="M2506.27,1057.56H2495v-2.14h13.82v2.14l-8,14.59h-2.42Z" transform="translate(-349.11 -786)"/><path class="cls-9" d="M547.42,1106.66c0-4.62,2-8.71,6.93-8.71s6.89,4.09,6.89,8.71-2,8.72-6.89,8.72S547.42,1111.29,547.42,1106.66Zm11.64,0c0-3.65-1.45-6.68-4.73-6.68s-4.73,3-4.73,6.68,1.45,6.69,4.73,6.69S559.06,1110.32,559.06,1106.66Z" transform="translate(-349.11 -786)"/><path class="cls-9" d="M564.54,1112.91a59.45,59.45,0,0,0,6.73-4.57c2-1.59,3.43-2.95,3.43-5,0-1.92-1.41-3.37-4.24-3.37-3.33,0-4.65,2-4.65,4.42a7.67,7.67,0,0,0,.22,1.81h-2.15a7.27,7.27,0,0,1-.22-1.89c0-3.5,1.87-6.32,6.8-6.32,4.37,0,6.4,2.22,6.4,5.39,0,1.92-.73,3.87-4.2,6.56a49.3,49.3,0,0,1-4.49,3h9.3v2.14H564.54Z" transform="translate(-349.11 -786)"/><path class="cls-9" d="M724.31,1104.66c0-4.62,2-8.71,6.93-8.71s6.89,4.09,6.89,8.71-2,8.72-6.89,8.72S724.31,1109.29,724.31,1104.66Zm11.64,0c0-3.65-1.45-6.68-4.73-6.68s-4.73,3-4.73,6.68,1.45,6.69,4.73,6.69S736,1108.32,736,1104.66Z" transform="translate(-349.11 -786)"/><path class="cls-9" d="M739.93,1109.35h2.24c.53,1.48,2.14,2.05,4.4,2.05,3.81,0,5-1.59,5-3.44,0-2.37-2-3.54-6.4-3.54h-1.5v-1.91l6.27-4.07h-8.64v-2.14h11.53v2.36l-6.41,4.07h.16c4.42,0,7.13,1.91,7.13,5.1,0,2.6-1.81,5.55-7.18,5.55C743,1113.38,740.57,1112,739.93,1109.35Z" transform="translate(-349.11 -786)"/><path class="cls-9" d="M894.32,1106.66c0-4.62,2-8.71,6.94-8.71s6.88,4.09,6.88,8.71-2,8.72-6.88,8.72S894.32,1111.29,894.32,1106.66Zm11.64,0c0-3.65-1.45-6.68-4.73-6.68s-4.73,3-4.73,6.68,1.46,6.69,4.73,6.69S906,1110.32,906,1106.66Z" transform="translate(-349.11 -786)"/><path class="cls-9" d="M923.76,1111.35h-3.65V1115H918v-3.68h-8V1109l6.65-10.7h2.35l-6.64,10.92H918V1105h2.14v4.23h3.65Z" transform="translate(-349.11 -786)"/><path class="cls-9" d="M1070.14,1106.66c0-4.62,2-8.71,6.93-8.71s6.89,4.09,6.89,8.71-2,8.72-6.89,8.72S1070.14,1111.29,1070.14,1106.66Zm11.64,0c0-3.65-1.46-6.68-4.73-6.68s-4.73,3-4.73,6.68,1.45,6.69,4.73,6.69S1081.78,1110.32,1081.78,1106.66Z" transform="translate(-349.11 -786)"/><path class="cls-9" d="M1085.76,1111.53h2.31c.15,1.18,2,1.87,4.18,1.87,3.85,0,5.17-2.14,5.17-4.2s-1.48-4.14-4.67-4.14a4.76,4.76,0,0,0-4.46,2.35h-2.47l2.56-9.11h9.1v2.14h-7.7l-1.21,4.35c1-1.25,2.38-1.71,4.29-1.71,4.73,0,6.71,2.79,6.71,6.14s-1.91,6.16-7.26,6.16C1088.33,1115.38,1086,1113.77,1085.76,1111.53Z" transform="translate(-349.11 -786)"/><path class="cls-9" d="M1248.14,1106.66c0-4.62,2-8.71,6.93-8.71s6.89,4.09,6.89,8.71-2,8.72-6.89,8.72S1248.14,1111.29,1248.14,1106.66Zm11.64,0c0-3.65-1.46-6.68-4.73-6.68s-4.73,3-4.73,6.68,1.45,6.69,4.73,6.69S1259.78,1110.32,1259.78,1106.66Z" transform="translate(-349.11 -786)"/><path class="cls-9" d="M1263.76,1107.13c0-5.2,2.48-9.18,7.32-9.18,3.08,0,5.33,1.61,5.61,4h-2.31c-.17-1.26-1.51-2.09-3.34-2.09-3.06,0-4.53,2.31-4.91,5.52a6.56,6.56,0,0,1,5.22-2.31,5.88,5.88,0,0,1,6.22,6.09c0,3.72-2.68,6.21-6.75,6.21C1266.59,1115.38,1263.76,1112.69,1263.76,1107.13Zm11.66,2.07c0-2.49-1.85-4.14-4.6-4.14s-4.53,1.63-4.53,4.14,1.8,4.2,4.53,4.2S1275.42,1111.68,1275.42,1109.2Z" transform="translate(-349.11 -786)"/><path class="cls-9" d="M1428.51,1106.66c0-4.62,2-8.71,6.93-8.71s6.89,4.09,6.89,8.71-2,8.72-6.89,8.72S1428.51,1111.29,1428.51,1106.66Zm11.64,0c0-3.65-1.45-6.68-4.73-6.68s-4.73,3-4.73,6.68,1.45,6.69,4.73,6.69S1440.15,1110.32,1440.15,1106.66Z" transform="translate(-349.11 -786)"/><path class="cls-9" d="M1455.42,1100.44h-11.29v-2.14H1458v2.14l-8,14.59h-2.42Z" transform="translate(-349.11 -786)"/><path class="cls-9" d="M1787.71,1106.56c0-4.62,2-8.72,6.93-8.72s6.89,4.1,6.89,8.72-2,8.71-6.89,8.71S1787.71,1111.18,1787.71,1106.56Zm11.64,0c0-3.66-1.45-6.69-4.73-6.69s-4.73,3-4.73,6.69,1.45,6.69,4.73,6.69S1799.35,1110.21,1799.35,1106.56Z" transform="translate(-349.11 -786)"/><path class="cls-9" d="M1803.55,1111.37h2.31c.2,1.21,2,2,3.83,2,3.24,0,5.08-2.27,5.19-5.64a6.77,6.77,0,0,1-5.36,2.31,5.83,5.83,0,0,1-6.19-6c0-3.69,2.67-6.14,6.65-6.14,4.31,0,7.17,2.84,7.17,8.23,0,5.55-3,9.2-7.57,9.2C1806.26,1115.27,1803.86,1113.71,1803.55,1111.37Zm11.18-7.43c0-2.47-1.94-4.12-4.71-4.12s-4.53,1.65-4.53,4.12,1.76,4.11,4.53,4.11S1814.73,1106.4,1814.73,1103.94Z" transform="translate(-349.11 -786)"/><path class="cls-9" d="M1973.62,1110.78v2.14H1959.8v-2.14h5.85v-12.45h-5.19v-2.13h7.33v14.58Z" transform="translate(-349.11 -786)"/><path class="cls-9" d="M1976,1104.56c0-4.62,2-8.72,6.94-8.72s6.88,4.1,6.88,8.72-2,8.71-6.88,8.71S1976,1109.18,1976,1104.56Zm11.64,0c0-3.66-1.45-6.69-4.73-6.69s-4.73,3-4.73,6.69,1.46,6.69,4.73,6.69S1987.67,1108.21,1987.67,1104.56Z" transform="translate(-349.11 -786)"/><path class="cls-9" d="M2146.63,1110.78v2.14h-13.81v-2.14h5.85v-12.45h-5.19v-2.13h7.32v14.58Z" transform="translate(-349.11 -786)"/><path class="cls-9" d="M2162.87,1110.78v2.14h-13.82v-2.14h5.85v-12.45h-5.19v-2.13H2157v14.58Z" transform="translate(-349.11 -786)"/><path class="cls-9" d="M2319.45,1110.78v2.14h-13.82v-2.14h5.85v-12.45h-5.19v-2.13h7.32v14.58Z" transform="translate(-349.11 -786)"/><path class="cls-9" d="M2322.74,1110.8a58.93,58.93,0,0,0,6.74-4.57c1.95-1.59,3.43-3,3.43-5,0-1.91-1.41-3.37-4.25-3.37-3.32,0-4.64,2-4.64,4.43a7.58,7.58,0,0,0,.22,1.8h-2.16a7.66,7.66,0,0,1-.22-1.89c0-3.5,1.87-6.32,6.8-6.32,4.38,0,6.4,2.23,6.4,5.39,0,1.92-.72,3.88-4.2,6.56a47.93,47.93,0,0,1-4.49,3h9.31v2.14h-12.94Z" transform="translate(-349.11 -786)"/><path class="cls-9" d="M1602.83,1107c0-4.62,2-8.71,6.94-8.71s6.88,4.09,6.88,8.71-2,8.72-6.88,8.72S1602.83,1111.57,1602.83,1107Zm11.64,0c0-3.65-1.45-6.69-4.73-6.69s-4.73,3-4.73,6.69,1.45,6.69,4.73,6.69S1614.47,1110.61,1614.47,1107Z" transform="translate(-349.11 -786)"/><path class="cls-9" d="M1618.45,1110.56a4.36,4.36,0,0,1,3.06-4.2,3.8,3.8,0,0,1-2.26-3.54c0-2.34,1.69-4.58,6.13-4.58s6.12,2.24,6.12,4.58a3.77,3.77,0,0,1-2.26,3.54,4.33,4.33,0,0,1,3,4.18c0,2.44-1.69,5.13-6.89,5.13S1618.45,1113,1618.45,1110.56Zm11.6,0c0-1.43-1-3-4.69-3s-4.68,1.56-4.68,3,1,3.21,4.68,3.21S1630.05,1112,1630.05,1110.54Zm-.79-7.72c0-1.32-1-2.67-3.9-2.67s-3.89,1.35-3.89,2.67,1,2.66,3.89,2.66S1629.26,1104.14,1629.26,1102.82Z" transform="translate(-349.11 -786)"/><path class="cls-9" d="M2660.4,1104.84c0-4.62,2-8.71,6.93-8.71s6.89,4.09,6.89,8.71-2,8.71-6.89,8.71S2660.4,1109.46,2660.4,1104.84Zm11.64,0c0-3.65-1.45-6.69-4.73-6.69s-4.73,3-4.73,6.69,1.45,6.69,4.73,6.69S2672,1108.49,2672,1104.84Z" transform="translate(-349.11 -786)"/><path class="cls-9" d="M2677.52,1111.09a59.07,59.07,0,0,0,6.73-4.58c2-1.58,3.43-3,3.43-5,0-1.91-1.4-3.36-4.24-3.36-3.33,0-4.65,2-4.65,4.42a7.58,7.58,0,0,0,.22,1.8h-2.15a7.6,7.6,0,0,1-.22-1.89c0-3.5,1.87-6.31,6.8-6.31,4.38,0,6.4,2.22,6.4,5.39,0,1.91-.73,3.87-4.2,6.55a47.16,47.16,0,0,1-4.49,3h9.31v2.13h-12.94Z" transform="translate(-349.11 -786)"/><path class="cls-9" d="M2835.11,1106.84c0-4.62,2-8.71,6.94-8.71s6.88,4.09,6.88,8.71-2,8.71-6.88,8.71S2835.11,1111.46,2835.11,1106.84Zm11.64,0c0-3.65-1.45-6.69-4.73-6.69s-4.73,3-4.73,6.69,1.46,6.69,4.73,6.69S2846.75,1110.49,2846.75,1106.84Z" transform="translate(-349.11 -786)"/><path class="cls-9" d="M2850.73,1111.53H2853c.53,1.47,2.13,2,4.4,2,3.81,0,5-1.58,5-3.43,0-2.38-2-3.54-6.41-3.54h-1.49v-1.92l6.27-4.07h-8.65v-2.13h11.53v2.35l-6.4,4.07h.15c4.43,0,7.13,1.92,7.13,5.11,0,2.59-1.8,5.54-7.17,5.54C2853.79,1115.55,2851.37,1114.17,2850.73,1111.53Z" transform="translate(-349.11 -786)"/><path class="cls-9" d="M3006.11,1104.84c0-4.62,2-8.71,6.94-8.71s6.88,4.09,6.88,8.71-2,8.71-6.88,8.71S3006.11,1109.46,3006.11,1104.84Zm11.64,0c0-3.65-1.45-6.69-4.73-6.69s-4.73,3-4.73,6.69,1.46,6.69,4.73,6.69S3017.75,1108.49,3017.75,1104.84Z" transform="translate(-349.11 -786)"/><path class="cls-9" d="M3035.55,1109.53h-3.65v3.67h-2.14v-3.67h-8v-2.36l6.65-10.69h2.35l-6.64,10.91h5.67v-4.22h2.14v4.22h3.65Z" transform="translate(-349.11 -786)"/><path class="cls-9" d="M3220.72,1105c0-4.62,2-8.71,6.93-8.71s6.89,4.09,6.89,8.71-2,8.71-6.89,8.71S3220.72,1109.64,3220.72,1105Zm11.64,0c0-3.65-1.46-6.69-4.73-6.69s-4.73,3-4.73,6.69,1.45,6.69,4.73,6.69S3232.36,1108.67,3232.36,1105Z" transform="translate(-349.11 -786)"/><path class="cls-9" d="M3236.34,1109.88h2.31c.15,1.19,2,1.87,4.18,1.87,3.85,0,5.17-2.13,5.17-4.2s-1.48-4.14-4.67-4.14a4.75,4.75,0,0,0-4.46,2.36h-2.47l2.56-9.11h9.1v2.13h-7.7l-1.21,4.36c.95-1.25,2.38-1.72,4.29-1.72,4.73,0,6.71,2.8,6.71,6.14s-1.91,6.16-7.26,6.16C3238.91,1113.73,3236.58,1112.13,3236.34,1109.88Z" transform="translate(-349.11 -786)"/><path class="cls-9" d="M2479.46,1104.79c0-4.63,2-8.72,6.93-8.72s6.89,4.09,6.89,8.72-2,8.71-6.89,8.71S2479.46,1109.41,2479.46,1104.79Zm11.64,0c0-3.66-1.45-6.69-4.73-6.69s-4.73,3-4.73,6.69,1.45,6.68,4.73,6.68S2491.1,1108.44,2491.1,1104.79Z" transform="translate(-349.11 -786)"/><path class="cls-9" d="M2509.52,1111v2.14H2495.7V1111h5.85v-12.45h-5.19v-2.14h7.33V1111Z" transform="translate(-349.11 -786)"/><circle class="cls-5" cx="1451.81" cy="104.7" r="25"/><path id="Pfad_33-4" data-name="Pfad 33" class="cls-6" d="M1801.94,879.36l11.34,11.34L1801.94,902" transform="translate(-349.11 -786)"/><line id="Linie_2-2" data-name="Linie 2" class="cls-6" x1="1439.46" y1="104.7" x2="1464.17" y2="104.7"/><circle class="cls-2" cx="1453.81" cy="369" r="25"/><g id="Gruppe_74-4" data-name="Gruppe 74"><path id="Pfad_33-5" data-name="Pfad 33" class="cls-4" d="M1803.94,1143.67l11.34,11.33-11.34,11.34" transform="translate(-349.11 -786)"/><line id="Linie_2-3" data-name="Linie 2" class="cls-4" x1="1441.46" y1="368.98" x2="1466.17" y2="368.98"/></g><circle class="cls-5" cx="1096.39" cy="185" r="25"/><g id="Gruppe_74-5" data-name="Gruppe 74"><path id="Pfad_33-6" data-name="Pfad 33" class="cls-6" d="M1481.92,945.68l-37.6,37.6L1433,971.94" transform="translate(-349.11 -786)"/></g><path class="cls-9" d="M425.34,1017.56h2.31l4.77,13.54,4.76-13.54h2.31v16h-2.08v-11.35l-3.86,11.35h-2.27l-3.86-11.35v11.35h-2.08Z" transform="translate(-349.11 -786)"/><path class="cls-9" d="M442.56,1025.54c0-5,3.07-8.32,7.71-8.32s7.66,3.34,7.66,8.32-3,8.31-7.66,8.31S442.56,1030.51,442.56,1025.54Zm13.17,0c0-3.76-2.17-6.32-5.48-6.32s-5.48,2.56-5.48,6.32,2.16,6.32,5.48,6.32S455.73,1029.29,455.73,1025.54Z" transform="translate(-349.11 -786)"/><path class="cls-9" d="M460.68,1017.56h2.08l7.83,12.7v-12.7h2.1v16h-2.2l-7.71-12.15v12.15h-2.1Z" transform="translate(-349.11 -786)"/><path class="cls-9" d="M481,1017.56h2.27l6.32,16h-2.29l-1.77-4.62h-6.8l-1.76,4.62h-2.29Zm3.78,9.3-2.65-6.8-2.64,6.8Z" transform="translate(-349.11 -786)"/><path class="cls-9" d="M495.94,1019.57v13.94h-2.1v-13.94H489v-2h11.84l0,2Z" transform="translate(-349.11 -786)"/><path class="cls-9" d="M514.44,1031.5v2h-11v-16h10.68v2h-8.6v4.54h7.76v2h-7.76v5.36Z" transform="translate(-349.11 -786)"/><path class="cls-9" d="M349.11,1069.35h2.19c.65,2.77,2.58,3.55,5.14,3.55,2.08,0,3.42-.78,3.42-2.4s-1.57-2.29-2.68-2.6-2.31-.53-3.8-1.05c-2-.69-3.36-1.64-3.36-3.9,0-3.51,3.08-4.73,5.69-4.73,3.67,0,5.64,2.23,5.73,5.33H359.3c-.23-2.77-2.23-3.35-3.82-3.35-1,0-3.3.27-3.3,2.47,0,1.18.63,1.75,2,2.23a23.62,23.62,0,0,0,2.9.8c1.3.31,4.81,1,4.81,4.57,0,3.17-1.93,4.58-5.75,4.58C351.4,1074.85,349.37,1072.33,349.11,1069.35Z" transform="translate(-349.11 -786)"/><path class="cls-9" d="M363.67,1066.54c0-5,3.06-8.32,7.7-8.32s7.67,3.34,7.67,8.32-3.05,8.31-7.67,8.31S363.67,1071.51,363.67,1066.54Zm13.16,0c0-3.76-2.16-6.32-5.48-6.32s-5.48,2.56-5.48,6.32,2.16,6.32,5.48,6.32S376.83,1070.29,376.83,1066.54Z" transform="translate(-349.11 -786)"/><path class="cls-9" d="M381.79,1058.56h2.31l4.77,13.54,4.76-13.54h2.31v16h-2.08v-11.35L390,1074.51h-2.27l-3.86-11.35v11.35h-2.08Z" transform="translate(-349.11 -786)"/><path class="cls-9" d="M400,1058.56h2.31l4.76,13.54,4.77-13.54h2.31v16h-2.08v-11.35l-3.86,11.35h-2.27l-3.87-11.35v11.35H400Z" transform="translate(-349.11 -786)"/><path class="cls-9" d="M429.21,1072.5v2h-11v-16h10.69v2h-8.61v4.54H428v2h-7.77v5.36Z" transform="translate(-349.11 -786)"/><path class="cls-9" d="M432.19,1058.56h5.58c3.32,0,5.34,1.36,5.34,4.26,0,3.25-2.73,4.07-6.26,4.07l6.91,7.62h-2.61l-6.88-7.62v7.62h-2.08Zm5.84,6.55c1.51,0,3-.74,3-2.31,0-1.41-1-2.35-3.3-2.35h-3.44v4.66Z" transform="translate(-349.11 -786)"/><path class="cls-9" d="M446.13,1058.56h5.59c3.32,0,5.33,1.36,5.33,4.26,0,3.25-2.73,4.07-6.26,4.07l6.91,7.62h-2.6l-6.89-7.62v7.62h-2.08Zm5.84,6.55c1.51,0,3-.74,3-2.31,0-1.41-1-2.35-3.3-2.35h-3.44v4.66Z" transform="translate(-349.11 -786)"/><path class="cls-9" d="M460.08,1066.93v-8.37h2.1v8.27c0,3.4.29,6,3.9,6s3.91-2.63,3.91-6v-8.27h2.1v8.37c0,4.16-.51,7.92-6,7.92S460.08,1071.07,460.08,1066.93Z" transform="translate(-349.11 -786)"/><path class="cls-9" d="M475.51,1058.56h2.08l7.83,12.7v-12.7h2.1v16h-2.2l-7.71-12.15v12.15h-2.1Z" transform="translate(-349.11 -786)"/><path class="cls-9" d="M491.56,1074.51l0-16h5.81c4.37,0,7.23,2.54,7.23,8.06,0,4.83-2.19,7.94-6.85,7.92Zm5.79-2c3,0,5.06-1.87,5.06-6,0-3.65-1.62-6-5.06-6h-3.69v12Z" transform="translate(-349.11 -786)"/><path class="cls-9" d="M518.31,1072.5v2h-11v-16H518v2h-8.61v4.54h7.77v2h-7.77v5.36Z" transform="translate(-349.11 -786)"/><path class="cls-9" d="M359.32,1099.56h2.35L364.9,1113l4.14-13.46h2.69l4.14,13.46,3.23-13.46h2.35l-4.43,16h-2.29l-4.35-13.77L366,1115.51h-2.29Z" transform="translate(-349.11 -786)"/><path class="cls-9" d="M383.41,1099.56h2.1v16h-2.1Z" transform="translate(-349.11 -786)"/><path class="cls-9" d="M389.12,1099.56h2.08l7.83,12.7v-12.7h2.1v16h-2.21l-7.7-12.15v12.15h-2.1Z" transform="translate(-349.11 -786)"/><path class="cls-9" d="M410.71,1101.57v13.94h-2.1v-13.94h-4.9v-2h11.84l0,2Z" transform="translate(-349.11 -786)"/><path class="cls-9" d="M429.21,1113.5v2h-11v-16h10.69v2h-8.61v4.54H428v2h-7.77v5.36Z" transform="translate(-349.11 -786)"/><path class="cls-9" d="M432.19,1099.56h5.58c3.32,0,5.34,1.36,5.34,4.26,0,3.25-2.73,4.07-6.26,4.07l6.91,7.62h-2.61l-6.88-7.62v7.62h-2.08Zm5.84,6.55c1.51,0,3-.74,3-2.31,0-1.41-1-2.35-3.3-2.35h-3.44v4.66Z" transform="translate(-349.11 -786)"/><path class="cls-9" d="M446.13,1099.56h5.59c3.32,0,5.33,1.36,5.33,4.26,0,3.25-2.73,4.07-6.26,4.07l6.91,7.62h-2.6l-6.89-7.62v7.62h-2.08Zm5.84,6.55c1.51,0,3-.74,3-2.31,0-1.41-1-2.35-3.3-2.35h-3.44v4.66Z" transform="translate(-349.11 -786)"/><path class="cls-9" d="M460.08,1107.93v-8.37h2.1v8.27c0,3.4.29,6,3.9,6s3.91-2.63,3.91-6v-8.27h2.1v8.37c0,4.16-.51,7.92-6,7.92S460.08,1112.07,460.08,1107.93Z" transform="translate(-349.11 -786)"/><path class="cls-9" d="M475.51,1099.56h2.08l7.83,12.7v-12.7h2.1v16h-2.2l-7.71-12.15v12.15h-2.1Z" transform="translate(-349.11 -786)"/><path class="cls-9" d="M491.55,1115.51l0-16h5.81c4.37,0,7.22,2.54,7.22,8.06,0,4.83-2.18,7.94-6.84,7.92Zm5.8-2c3,0,5.06-1.87,5.06-6,0-3.65-1.62-6-5.06-6h-3.7v12Z" transform="translate(-349.11 -786)"/><path class="cls-9" d="M518.31,1113.5v2h-11v-16H518v2h-8.61v4.54h7.77v2h-7.77v5.36Z" transform="translate(-349.11 -786)"/><circle class="cls-8" cx="213.72" cy="239.92" r="6.25"/><circle class="cls-10" cx="213.89" cy="240.5" r="15"/><circle class="cls-8" cx="390.62" cy="240.92" r="6.25"/><circle class="cls-8" cx="559.93" cy="240.74" r="6.25"/><path d="M934.58,893.93v2H923.53V880h10.69v2h-8.61v4.54h7.77v2h-7.77v5.35Z" transform="translate(-349.11 -786)"/><path d="M937.56,880h2.08l7.83,12.7V880h2.1v16h-2.21l-7.7-12.16V896h-2.1Z" transform="translate(-349.11 -786)"/><path d="M953.6,896l0-16h5.82c4.37,0,7.22,2.54,7.22,8.06,0,4.83-2.18,7.94-6.84,7.92Zm5.8-2c3,0,5.06-1.87,5.06-6,0-3.66-1.62-6-5.06-6h-3.7v12Z" transform="translate(-349.11 -786)"/><path d="M980.36,893.93v2H969.31V880H980v2h-8.61v4.54h7.77v2h-7.77v5.35Z" transform="translate(-349.11 -786)"/><path d="M923.53,904h5.59c3.08,0,5.33,1.36,5.33,4.24a3.3,3.3,0,0,1-2.25,3.15,3.87,3.87,0,0,1,3.09,4c0,2.75-1.68,4.55-5.14,4.55h-6.62Zm5.19,6.55c2.27,0,3.65-.72,3.65-2.23s-1-2.43-3.27-2.43h-3.49v4.66Zm.77,7.51c2.17,0,3.72-.9,3.72-2.85,0-1.68-1.34-2.77-3.9-2.77h-3.7v5.62Z" transform="translate(-349.11 -786)"/><path d="M949.4,917.93v2h-11V904H949v2h-8.6v4.54h7.76v2h-7.76v5.35Z" transform="translate(-349.11 -786)"/><path d="M951.34,904h2.35l3.23,13.46L961.06,904h2.68l4.14,13.46L971.11,904h2.36l-4.43,16h-2.29l-4.35-13.77-4.35,13.77h-2.28Z" transform="translate(-349.11 -786)"/><path d="M986.89,917.93v2h-11V904h10.69v2h-8.61v4.54h7.77v2h-7.77v5.35Z" transform="translate(-349.11 -786)"/><path d="M989.87,904h5.59c3.31,0,5.33,1.36,5.33,4.26,0,3.25-2.73,4.07-6.26,4.07l6.91,7.62h-2.6L992,912.32v7.62h-2.08Zm5.84,6.55c1.51,0,3-.74,3-2.31,0-1.41-1-2.35-3.3-2.35H992v4.66Z" transform="translate(-349.11 -786)"/><path d="M1003.81,904h5.59c3.09,0,5.33,1.36,5.33,4.24a3.3,3.3,0,0,1-2.24,3.15,3.87,3.87,0,0,1,3.08,4c0,2.75-1.68,4.55-5.14,4.55h-6.62Zm5.19,6.55c2.27,0,3.65-.72,3.65-2.23s-1-2.43-3.27-2.43h-3.49v4.66Zm.78,7.51c2.16,0,3.71-.9,3.71-2.85,0-1.68-1.34-2.77-3.9-2.77h-3.7v5.62Z" transform="translate(-349.11 -786)"/><path d="M1018.64,912.36V904h2.1v8.27c0,3.4.29,6,3.91,6s3.9-2.63,3.9-6V904h2.1v8.37c0,4.16-.5,7.92-6,7.92S1018.64,916.5,1018.64,912.36Z" transform="translate(-349.11 -786)"/><path d="M1034.07,904h2.08l7.83,12.7V904h2.1v16h-2.2l-7.71-12.15v12.15h-2.1Z" transform="translate(-349.11 -786)"/><path d="M1049.15,911.94c0-5,3-8.29,7.58-8.29,3.74,0,6.59,2.25,7.14,5.61h-2.18a4.86,4.86,0,0,0-5-3.61c-3.19,0-5.29,2.52-5.29,6.34s2.37,6.3,6,6.3a5.86,5.86,0,0,0,4.43-1.85v-2.63h-5.56v-2h7.62v5.46a8.08,8.08,0,0,1-6.53,3C1052.41,920.28,1049.15,916.94,1049.15,911.94Z" transform="translate(-349.11 -786)"/><path d="M1065.93,914.78h2.18c.66,2.77,2.59,3.55,5.15,3.55,2.08,0,3.42-.78,3.42-2.4s-1.57-2.28-2.69-2.6-2.3-.52-3.8-1.05c-2-.69-3.36-1.64-3.36-3.9,0-3.51,3.09-4.73,5.69-4.73,3.68,0,5.65,2.23,5.74,5.33h-2.15c-.23-2.77-2.22-3.36-3.82-3.36-1,0-3.29.28-3.29,2.48,0,1.18.63,1.74,2,2.23a23.62,23.62,0,0,0,2.9.8c1.3.31,4.81,1,4.81,4.57,0,3.17-1.94,4.58-5.76,4.58C1068.22,920.28,1066.18,917.76,1065.93,914.78Z" transform="translate(-349.11 -786)"/><path d="M1081.35,904h6c3,0,4.93,1.45,4.93,4.47,0,2.64-1.63,4.39-5,4.39h-3.89v7.09h-2.07Zm5.54,7c2,0,3.3-.8,3.3-2.52,0-1.53-1-2.56-3.3-2.56h-3.47V911Z" transform="translate(-349.11 -786)"/><path d="M1107.34,904v16h-2.1v-7.36h-7.81v7.36h-2.1V904h2.1v6.55h7.81V904Z" transform="translate(-349.11 -786)"/><path d="M1115.62,904h2.26l6.32,16h-2.29l-1.76-4.61h-6.8l-1.77,4.61h-2.28Zm3.78,9.3-2.65-6.8-2.65,6.8Z" transform="translate(-349.11 -786)"/><path d="M1124.79,914.78H1127c.65,2.77,2.58,3.55,5.14,3.55,2.08,0,3.42-.78,3.42-2.4s-1.57-2.28-2.68-2.6-2.31-.52-3.8-1.05c-2-.69-3.36-1.64-3.36-3.9,0-3.51,3.08-4.73,5.69-4.73,3.67,0,5.64,2.23,5.73,5.33H1135c-.23-2.77-2.23-3.36-3.82-3.36-1,0-3.3.28-3.3,2.48,0,1.18.63,1.74,2,2.23a23.62,23.62,0,0,0,2.9.8c1.3.31,4.81,1,4.81,4.57,0,3.17-1.93,4.58-5.75,4.58C1127.08,920.28,1125.05,917.76,1124.79,914.78Z" transform="translate(-349.11 -786)"/><path d="M1151.25,917.93v2h-11V904h10.68v2h-8.6v4.54h7.76v2h-7.76v5.35Z" transform="translate(-349.11 -786)"/><circle class="cls-5" cx="2486.89" cy="187.5" r="25"/><g id="Gruppe_74-6" data-name="Gruppe 74"><path id="Pfad_33-7" data-name="Pfad 33" class="cls-6" d="M2872.42,948.18l-37.6,37.6-11.34-11.34" transform="translate(-349.11 -786)"/></g><circle class="cls-5" cx="964.7" cy="104.7" r="25"/><g id="Gruppe_74-7" data-name="Gruppe 74"><path id="Pfad_33-8" data-name="Pfad 33" class="cls-6" d="M1313.28,879.36l11.34,11.34L1313.28,902" transform="translate(-349.11 -786)"/><line id="Linie_2-4" data-name="Linie 2" class="cls-6" x1="950.8" y1="104.67" x2="975.51" y2="104.67"/></g><rect class="cls-5" x="1452.39" y="25" width="124" height="37"/><path d="M1331.17,822h2.27l6.32,16h-2.29l-1.76-4.62h-6.8l-1.77,4.62h-2.29Zm3.78,9.3-2.64-6.81-2.65,6.81Z" transform="translate(-349.11 -786)"/><path d="M1341.72,822h2.08l7.83,12.7V822h2.1v16h-2.21l-7.7-12.15V838h-2.1Z" transform="translate(-349.11 -786)"/><path d="M1363.3,824V838h-2.1V824h-4.89v-2h11.84l0,2Z" transform="translate(-349.11 -786)"/><path d="M1370.76,822h5.58c3.32,0,5.34,1.36,5.34,4.26,0,3.25-2.73,4.07-6.26,4.07l6.91,7.62h-2.61l-6.88-7.62V838h-2.08Zm5.84,6.55c1.51,0,3-.74,3-2.31,0-1.41-1-2.36-3.3-2.36h-3.44v4.67Z" transform="translate(-349.11 -786)"/><path d="M1389.57,822h2.27l6.32,16h-2.29l-1.76-4.62h-6.8l-1.77,4.62h-2.28Zm3.78,9.3-2.64-6.81-2.65,6.81Z" transform="translate(-349.11 -786)"/><path d="M1399.26,830c0-5,3-8.29,7.58-8.29,3.73,0,6.59,2.25,7.14,5.6h-2.19a4.86,4.86,0,0,0-5-3.61c-3.19,0-5.29,2.52-5.29,6.34s2.37,6.3,6,6.3a5.87,5.87,0,0,0,4.43-1.84v-2.63h-5.57v-2H1414v5.46a8.07,8.07,0,0,1-6.54,3.05C1402.51,838.32,1399.26,835,1399.26,830Z" transform="translate(-349.11 -786)"/><path d="M1416,832.82h2.19c.65,2.77,2.58,3.55,5.14,3.55,2.08,0,3.42-.78,3.42-2.4s-1.57-2.29-2.68-2.6-2.31-.53-3.8-1c-2-.7-3.36-1.64-3.36-3.91,0-3.5,3.08-4.72,5.69-4.72,3.67,0,5.65,2.22,5.73,5.33h-2.14c-.23-2.77-2.23-3.36-3.82-3.36-1,0-3.3.28-3.3,2.48,0,1.18.63,1.74,2,2.23a23.67,23.67,0,0,0,2.9.79c1.3.32,4.81,1,4.81,4.58,0,3.17-1.93,4.58-5.75,4.58C1418.32,838.32,1416.29,835.8,1416,832.82Z" transform="translate(-349.11 -786)"/><path d="M1429.79,822h2.35l3.23,13.45,4.14-13.45h2.69l4.14,13.45,3.23-13.45h2.35l-4.43,16h-2.29l-4.35-13.77L1436.51,838h-2.29Z" transform="translate(-349.11 -786)"/><path d="M1453.44,830c0-5,3.06-8.31,7.7-8.31s7.67,3.34,7.67,8.31-3,8.32-7.67,8.32S1453.44,835,1453.44,830Zm13.16,0c0-3.75-2.16-6.32-5.48-6.32s-5.48,2.57-5.48,6.32,2.16,6.32,5.48,6.32S1466.6,833.76,1466.6,830Z" transform="translate(-349.11 -786)"/><path d="M1471.56,822h5.58c3.32,0,5.34,1.36,5.34,4.26,0,3.25-2.73,4.07-6.26,4.07l6.91,7.62h-2.61l-6.88-7.62V838h-2.08Zm5.84,6.55c1.51,0,3-.74,3-2.31,0-1.41-1-2.36-3.3-2.36h-3.44v4.67Z" transform="translate(-349.11 -786)"/><path d="M1494.28,838l-6.68-7.37V838h-2.1V822h2.1v7.22L1494,822h2.65l-6.95,7.81,7.26,8.14Z" transform="translate(-349.11 -786)"/><path d="M1497.3,832.82h2.19c.65,2.77,2.58,3.55,5.14,3.55,2.08,0,3.42-.78,3.42-2.4s-1.57-2.29-2.68-2.6-2.31-.53-3.8-1c-2-.7-3.36-1.64-3.36-3.91,0-3.5,3.08-4.72,5.69-4.72,3.67,0,5.65,2.22,5.73,5.33h-2.14c-.23-2.77-2.23-3.36-3.82-3.36-1,0-3.3.28-3.3,2.48,0,1.18.63,1.74,2,2.23a23.67,23.67,0,0,0,2.9.79c1.3.32,4.81,1,4.81,4.58,0,3.17-1.93,4.58-5.75,4.58C1499.59,838.32,1497.56,835.8,1497.3,832.82Z" transform="translate(-349.11 -786)"/><path d="M1524.73,822v16h-2.1v-7.37h-7.81V838h-2.1V822h2.1v6.55h7.81V822Z" transform="translate(-349.11 -786)"/><path d="M1527.8,830c0-5,3.06-8.31,7.7-8.31s7.67,3.34,7.67,8.31-3.05,8.32-7.67,8.32S1527.8,835,1527.8,830Zm13.16,0c0-3.75-2.16-6.32-5.48-6.32S1530,826.25,1530,830s2.16,6.32,5.48,6.32S1541,833.76,1541,830Z" transform="translate(-349.11 -786)"/><path d="M1545.92,822h6c3,0,4.94,1.44,4.94,4.47,0,2.64-1.64,4.38-5,4.38H1548V838h-2.08Zm5.54,7c2,0,3.3-.8,3.3-2.52,0-1.54-1-2.57-3.3-2.57H1548V829Z" transform="translate(-349.11 -786)"/><path d="M3034.88,799.43V804h7.37v2h-7.37v7.37h-2.1v-16h10.5v2Z" transform="translate(-349.11 -786)"/><path d="M3045.72,797.42h5.58c3.32,0,5.34,1.36,5.34,4.26,0,3.25-2.73,4.07-6.26,4.07l6.91,7.62h-2.6l-6.89-7.62v7.62h-2.08Zm5.84,6.55c1.51,0,3-.74,3-2.31,0-1.41-1-2.35-3.3-2.35h-3.44V804Z" transform="translate(-349.11 -786)"/><path d="M3059.24,797.42h2.1v16h-2.1Z" transform="translate(-349.11 -786)"/><path d="M3063.17,808.21h2.19c.65,2.77,2.58,3.55,5.14,3.55,2.08,0,3.42-.78,3.42-2.4s-1.57-2.28-2.69-2.6-2.31-.52-3.8-1c-1.95-.69-3.36-1.64-3.36-3.9,0-3.51,3.09-4.73,5.69-4.73,3.68,0,5.65,2.23,5.74,5.33h-2.15c-.23-2.77-2.22-3.36-3.82-3.36-1,0-3.29.28-3.29,2.48,0,1.18.63,1.75,2,2.23a23.62,23.62,0,0,0,2.9.8c1.3.31,4.81,1,4.81,4.57,0,3.17-1.94,4.58-5.76,4.58C3065.46,813.71,3063.42,811.19,3063.17,808.21Z" transform="translate(-349.11 -786)"/><path d="M3084.13,799.43v13.94H3082V799.43h-4.89v-2H3089l0,2Z" transform="translate(-349.11 -786)"/><path d="M3037.65,821.42h2.27l6.32,16H3044l-1.76-4.62h-6.8l-1.77,4.62h-2.28Zm3.78,9.3-2.64-6.8-2.65,6.8Z" transform="translate(-349.11 -786)"/><path d="M3048.2,821.42h5.58c3.09,0,5.34,1.36,5.34,4.24a3.3,3.3,0,0,1-2.25,3.15,3.87,3.87,0,0,1,3.09,4c0,2.75-1.68,4.55-5.15,4.55h-6.61Zm5.18,6.55c2.27,0,3.66-.72,3.66-2.23s-1-2.43-3.28-2.43h-3.48V828Zm.78,7.51c2.16,0,3.72-.9,3.72-2.85,0-1.68-1.35-2.77-3.91-2.77h-3.69v5.62Z" transform="translate(-349.11 -786)"/><path d="M3061.66,832.21h2.18c.65,2.77,2.58,3.55,5.15,3.55,2.07,0,3.42-.78,3.42-2.4s-1.58-2.28-2.69-2.6-2.31-.52-3.8-1c-2-.69-3.36-1.64-3.36-3.9,0-3.51,3.09-4.73,5.69-4.73,3.68,0,5.65,2.23,5.73,5.33h-2.14c-.23-2.77-2.22-3.36-3.82-3.36-1,0-3.3.28-3.3,2.48,0,1.18.63,1.74,2,2.23a23.62,23.62,0,0,0,2.9.8c1.3.31,4.8,1,4.8,4.57,0,3.17-1.93,4.58-5.75,4.58C3064,837.71,3061.91,835.19,3061.66,832.21Z" transform="translate(-349.11 -786)"/><path d="M3076.21,829.46c0-5,3-8.38,7.62-8.38a6.88,6.88,0,0,1,7.1,6h-2.18a4.9,4.9,0,0,0-5.06-4c-3.2,0-5.27,2.54-5.27,6.32s2.1,6.32,5.31,6.32a4.88,4.88,0,0,0,5-4.08h2.18a6.91,6.91,0,0,1-7.16,6.07C3079.21,837.71,3076.21,834.39,3076.21,829.46Z" transform="translate(-349.11 -786)"/><path d="M3105.34,821.42v16h-2.1V830h-7.81v7.37h-2.1v-16h2.1V828h7.81v-6.55Z" transform="translate(-349.11 -786)"/><path d="M3119.85,835.36v2h-10.48v-16h2.08v13.94Z" transform="translate(-349.11 -786)"/><path d="M3121.87,829.79v-8.37H3124v8.27c0,3.4.3,6,3.91,6s3.91-2.63,3.91-6v-8.27h2.1v8.37c0,4.16-.51,7.92-6,7.92S3121.87,833.93,3121.87,829.79Z" transform="translate(-349.11 -786)"/><path d="M3135.94,832.21h2.18c.65,2.77,2.58,3.55,5.14,3.55,2.08,0,3.43-.78,3.43-2.4s-1.58-2.28-2.69-2.6-2.31-.52-3.8-1c-2-.69-3.36-1.64-3.36-3.9,0-3.51,3.08-4.73,5.69-4.73,3.67,0,5.65,2.23,5.73,5.33h-2.14c-.23-2.77-2.23-3.36-3.82-3.36-1,0-3.3.28-3.3,2.48,0,1.18.63,1.74,2,2.23a23.62,23.62,0,0,0,2.9.8c1.3.31,4.81,1,4.81,4.57,0,3.17-1.93,4.58-5.75,4.58C3138.22,837.71,3136.19,835.19,3135.94,832.21Z" transform="translate(-349.11 -786)"/><path d="M3149.69,832.21h2.18c.65,2.77,2.59,3.55,5.15,3.55,2.08,0,3.42-.78,3.42-2.4s-1.57-2.28-2.69-2.6-2.31-.52-3.8-1c-1.95-.69-3.36-1.64-3.36-3.9,0-3.51,3.09-4.73,5.69-4.73,3.68,0,5.65,2.23,5.73,5.33h-2.14c-.23-2.77-2.22-3.36-3.82-3.36-1,0-3.29.28-3.29,2.48,0,1.18.62,1.74,2,2.23a23.62,23.62,0,0,0,2.9.8c1.3.31,4.8,1,4.8,4.57,0,3.17-1.93,4.58-5.75,4.58C3152,837.71,3149.94,835.19,3149.69,832.21Z" transform="translate(-349.11 -786)"/><path d="M3165.1,821.42h5.59c3.09,0,5.33,1.36,5.33,4.24a3.3,3.3,0,0,1-2.24,3.15,3.87,3.87,0,0,1,3.08,4c0,2.75-1.68,4.55-5.14,4.55h-6.62Zm5.19,6.55c2.27,0,3.65-.72,3.65-2.23s-1-2.43-3.27-2.43h-3.49V828Zm.78,7.51c2.16,0,3.71-.9,3.71-2.85,0-1.68-1.34-2.77-3.9-2.77h-3.7v5.62Z" transform="translate(-349.11 -786)"/><path d="M3191,835.36v2h-11v-16h10.69v2H3182V828h7.77v2H3182v5.36Z" transform="translate(-349.11 -786)"/><path d="M3194,821.42h5.58c3.32,0,5.34,1.36,5.34,4.26,0,3.25-2.73,4.07-6.26,4.07l6.91,7.62h-2.61l-6.88-7.62v7.62H3194Zm5.83,6.55c1.52,0,3-.74,3-2.31,0-1.41-1-2.35-3.3-2.35H3196V828Z" transform="translate(-349.11 -786)"/><path d="M3207.48,821.42h2.1v16h-2.1Z" transform="translate(-349.11 -786)"/><path d="M3212.23,829.46c0-5,3-8.38,7.62-8.38a6.89,6.89,0,0,1,7.1,6h-2.19a4.89,4.89,0,0,0-5.06-4c-3.19,0-5.27,2.54-5.27,6.32s2.1,6.32,5.31,6.32a4.88,4.88,0,0,0,5-4.08H3227a6.92,6.92,0,0,1-7.16,6.07C3215.23,837.71,3212.23,834.39,3212.23,829.46Z" transform="translate(-349.11 -786)"/><path d="M3241.35,821.42v16h-2.1V830h-7.81v7.37h-2.1v-16h2.1V828h7.81v-6.55Z" transform="translate(-349.11 -786)"/><path d="M3250.93,823.43v13.94h-2.1V823.43h-4.89v-2h11.84l0,2Z" transform="translate(-349.11 -786)"/><path d="M1822.15,837.37l-6.67-7.37v7.37h-2.1v-16h2.1v7.22l6.36-7.22h2.64l-6.94,7.81,7.26,8.14Z" transform="translate(-349.11 -786)"/><path d="M1827,821.42h2.09v16H1827Z" transform="translate(-349.11 -786)"/><path d="M1831.71,829.46c0-5,3-8.38,7.62-8.38a6.88,6.88,0,0,1,7.1,6h-2.18a4.9,4.9,0,0,0-5.06-4c-3.2,0-5.27,2.54-5.27,6.32s2.1,6.32,5.31,6.32a4.88,4.88,0,0,0,5-4.08h2.18a6.91,6.91,0,0,1-7.16,6.07C1834.71,837.71,1831.71,834.39,1831.71,829.46Z" transform="translate(-349.11 -786)"/><path d="M1857.6,837.37l-6.67-7.37v7.37h-2.1v-16h2.1v7.22l6.36-7.22h2.64l-7,7.81,7.27,8.14Z" transform="translate(-349.11 -786)"/><path d="M1861.66,832.82V831h8.4v1.83Z" transform="translate(-349.11 -786)"/><path d="M1872.51,829.4c0-5,3.07-8.32,7.71-8.32s7.66,3.34,7.66,8.32-3,8.31-7.66,8.31S1872.51,834.37,1872.51,829.4Zm13.17,0c0-3.76-2.16-6.32-5.48-6.32s-5.48,2.56-5.48,6.32,2.16,6.32,5.48,6.32S1885.68,833.15,1885.68,829.4Z" transform="translate(-349.11 -786)"/><path d="M1892.74,823.43V828h7.37v2h-7.37v7.37h-2.1v-16h10.49v2Z" transform="translate(-349.11 -786)"/><path d="M1905.67,823.43V828H1913v2h-7.37v7.37h-2.1v-16h10.5v2Z" transform="translate(-349.11 -786)"/><rect class="cls-5" x="2485.39" y="106" width="135" height="37"/><path d="M2846.38,918.37l0-16h5.81c4.37,0,7.23,2.54,7.23,8.06,0,4.83-2.19,7.94-6.85,7.92Zm5.79-2c3,0,5.06-1.87,5.06-6,0-3.65-1.61-6-5.06-6h-3.69v12Z" transform="translate(-349.11 -786)"/><path d="M2873.13,916.36v2h-11v-16h10.68v2h-8.61V909h7.77v2h-7.77v5.36Z" transform="translate(-349.11 -786)"/><path d="M2876.12,902.42h2.3l4.77,13.54,4.77-13.54h2.31v16h-2.08V907l-3.87,11.35h-2.26L2878.19,907v11.35h-2.07Z" transform="translate(-349.11 -786)"/><path d="M2893.33,910.4c0-5,3.07-8.32,7.71-8.32s7.66,3.34,7.66,8.32-3,8.31-7.66,8.31S2893.33,915.37,2893.33,910.4Zm13.17,0c0-3.76-2.16-6.32-5.48-6.32s-5.48,2.56-5.48,6.32,2.16,6.32,5.48,6.32S2906.5,914.15,2906.5,910.4Z" transform="translate(-349.11 -786)"/><path d="M2917.44,918.37l0-16h5.82c4.37,0,7.22,2.54,7.22,8.06,0,4.83-2.18,7.94-6.84,7.92Zm5.8-2c3,0,5.06-1.87,5.06-6,0-3.65-1.62-6-5.06-6h-3.7v12Z" transform="translate(-349.11 -786)"/><path d="M2937.81,902.42h2.27l6.32,16h-2.29l-1.76-4.61h-6.81l-1.76,4.61h-2.29Zm3.78,9.3-2.64-6.8-2.65,6.8Z" transform="translate(-349.11 -786)"/><path d="M2950.22,912.85l-5.56-10.43h2.39l4.24,8.48,4.22-8.48h2.4l-5.59,10.43v5.52h-2.1Z" transform="translate(-349.11 -786)"/><rect class="cls-2" x="2254.89" y="357" width="197.5" height="37"/><path d="M2616,1166.86a55.67,55.67,0,0,0,6.42-4.37c1.87-1.51,3.28-2.81,3.28-4.8,0-1.83-1.35-3.22-4.06-3.22-3.17,0-4.43,1.91-4.43,4.22a7.59,7.59,0,0,0,.21,1.73h-2.05a7.14,7.14,0,0,1-.21-1.81c0-3.34,1.78-6,6.48-6,4.18,0,6.11,2.12,6.11,5.15,0,1.82-.69,3.69-4,6.25a44.68,44.68,0,0,1-4.28,2.88h8.88v2H2616Z" transform="translate(-349.11 -786)"/><path d="M2630.55,1166.5H2633v2.38h-2.48Z" transform="translate(-349.11 -786)"/><path d="M2646.53,1152.92h2.27l6.32,16h-2.29l-1.77-4.62h-6.8l-1.76,4.62h-2.29Zm3.78,9.3-2.65-6.8-2.64,6.8Z" transform="translate(-349.11 -786)"/><path d="M2656.84,1161.3v-8.38h2.1v8.27c0,3.4.29,6,3.91,6s3.9-2.63,3.9-6v-8.27h2.1v8.38c0,4.15-.5,7.91-6,7.91S2656.84,1165.43,2656.84,1161.3Z" transform="translate(-349.11 -786)"/><path d="M2670.91,1163.71h2.18c.66,2.77,2.59,3.55,5.15,3.55,2.08,0,3.42-.78,3.42-2.39s-1.57-2.29-2.69-2.61-2.31-.52-3.8-1c-2-.69-3.36-1.63-3.36-3.9,0-3.51,3.09-4.73,5.69-4.73,3.68,0,5.65,2.23,5.74,5.34h-2.15c-.23-2.78-2.22-3.36-3.82-3.36-1,0-3.29.27-3.29,2.48,0,1.17.63,1.74,2,2.22a23.62,23.62,0,0,0,2.9.8c1.3.31,4.81,1,4.81,4.57,0,3.18-1.94,4.58-5.76,4.58C2673.2,1169.21,2671.16,1166.69,2670.91,1163.71Z" transform="translate(-349.11 -786)"/><path d="M2697.22,1166.86v2h-12v-2l8.67-11.92h-8.46v-2h10.92l0,2-8.69,11.92Z" transform="translate(-349.11 -786)"/><path d="M2704.89,1152.92h2.26l6.32,16h-2.28l-1.77-4.62h-6.8l-1.76,4.62h-2.29Zm3.78,9.3-2.65-6.8-2.64,6.8Z" transform="translate(-349.11 -786)"/><path d="M2727.44,1152.92v16h-2.1v-7.37h-7.81v7.37h-2.1v-16h2.1v6.55h7.81v-6.55Z" transform="translate(-349.11 -786)"/><path d="M2742,1166.86v2h-10.48v-16h2.08v13.94Z" transform="translate(-349.11 -786)"/><path d="M2744,1161.3v-8.38h2.1v8.27c0,3.4.29,6,3.9,6s3.91-2.63,3.91-6v-8.27h2.1v8.38c0,4.15-.51,7.91-6,7.91S2744,1165.43,2744,1161.3Z" transform="translate(-349.11 -786)"/><path d="M2759.4,1152.92h2.08l7.83,12.7v-12.7h2.1v16h-2.2l-7.71-12.16v12.16h-2.1Z" transform="translate(-349.11 -786)"/><path d="M2774.48,1160.88c0-5,3.05-8.3,7.58-8.3,3.74,0,6.59,2.25,7.14,5.61H2787a4.87,4.87,0,0,0-5-3.61c-3.19,0-5.29,2.52-5.29,6.34s2.37,6.3,6,6.3a5.87,5.87,0,0,0,4.43-1.85v-2.62h-5.56v-2h7.62v5.46a8.08,8.08,0,0,1-6.53,3C2777.74,1169.21,2774.48,1165.87,2774.48,1160.88Z" transform="translate(-349.11 -786)"/><rect class="cls-2" x="2864.89" y="357" width="195.5" height="37"/><path d="M3223,1165.37h2.14c.5,1.41,2,2,4.2,2,3.63,0,4.81-1.51,4.81-3.27,0-2.27-1.91-3.38-6.11-3.38h-1.43v-1.83l6-3.88h-8.25v-2h11v2.25l-6.11,3.88h.15c4.22,0,6.8,1.83,6.8,4.87,0,2.48-1.72,5.29-6.84,5.29C3225.88,1169.21,3223.57,1167.89,3223,1165.37Z" transform="translate(-349.11 -786)"/><path d="M3239.13,1166.5h2.47v2.38h-2.47Z" transform="translate(-349.11 -786)"/><path d="M3255.11,1152.92h2.26l6.32,16h-2.29l-1.76-4.62h-6.8l-1.77,4.62h-2.28Zm3.77,9.3-2.64-6.8-2.65,6.8Z" transform="translate(-349.11 -786)"/><path d="M3265.42,1161.3v-8.38h2.1v8.27c0,3.4.29,6,3.9,6s3.91-2.63,3.91-6v-8.27h2.1v8.38c0,4.16-.51,7.91-6,7.91S3265.42,1165.43,3265.42,1161.3Z" transform="translate(-349.11 -786)"/><path d="M3279.49,1163.71h2.18c.65,2.77,2.58,3.55,5.15,3.55,2.07,0,3.42-.78,3.42-2.39s-1.58-2.29-2.69-2.61-2.31-.52-3.8-1c-1.95-.69-3.36-1.63-3.36-3.9,0-3.51,3.09-4.73,5.69-4.73,3.68,0,5.65,2.23,5.73,5.34h-2.14c-.23-2.77-2.22-3.36-3.82-3.36-1,0-3.3.27-3.3,2.48,0,1.17.63,1.74,2,2.22a22.24,22.24,0,0,0,2.89.8c1.31.31,4.81,1,4.81,4.58,0,3.17-1.93,4.57-5.75,4.57C3281.78,1169.21,3279.74,1166.69,3279.49,1163.71Z" transform="translate(-349.11 -786)"/><path d="M3305.8,1166.86v2h-12v-2l8.67-11.92H3294v-2h10.92l0,2-8.69,11.92Z" transform="translate(-349.11 -786)"/><path d="M3313.46,1152.92h2.27l6.32,16h-2.29l-1.76-4.62h-6.8l-1.77,4.62h-2.29Zm3.78,9.3-2.64-6.8-2.65,6.8Z" transform="translate(-349.11 -786)"/><path d="M3336,1152.92v16h-2.1v-7.37h-7.81v7.37H3324v-16h2.1v6.55h7.81v-6.55Z" transform="translate(-349.11 -786)"/><path d="M3350.53,1166.86v2h-10.48v-16h2.08v13.94Z" transform="translate(-349.11 -786)"/><path d="M3352.55,1161.3v-8.38h2.1v8.27c0,3.4.29,6,3.9,6s3.91-2.63,3.91-6v-8.27h2.1v8.38c0,4.16-.51,7.91-6,7.91S3352.55,1165.43,3352.55,1161.3Z" transform="translate(-349.11 -786)"/><path d="M3368,1152.92h2.08l7.83,12.7v-12.7h2.1v16h-2.2l-7.71-12.16v12.16H3368Z" transform="translate(-349.11 -786)"/><path d="M3383.06,1160.88c0-5,3-8.3,7.58-8.3,3.74,0,6.59,2.25,7.14,5.61h-2.19a4.86,4.86,0,0,0-5-3.61c-3.19,0-5.29,2.52-5.29,6.34s2.38,6.3,6,6.3a5.87,5.87,0,0,0,4.43-1.85v-2.62h-5.56v-2h7.62v5.46a8.06,8.06,0,0,1-6.53,3C3386.31,1169.21,3383.06,1165.87,3383.06,1160.88Z" transform="translate(-349.11 -786)"/><circle class="cls-11" cx="2501.39" cy="241.15" r="15"/><circle class="cls-10" cx="2672.39" cy="241.18" r="15"/><rect class="cls-10" x="544.89" y="226.15" width="117" height="30" rx="15"/><rect class="cls-10" x="674.89" y="226.15" width="74" height="30" rx="15"/><rect class="cls-10" x="764.89" y="226.15" width="116" height="30" rx="15"/><path d="M1092.41,1148.46h2.18c.65,2.77,2.58,3.54,5.14,3.54,2.08,0,3.43-.77,3.43-2.39s-1.58-2.29-2.69-2.6-2.31-.53-3.8-1c-2-.69-3.36-1.64-3.36-3.91,0-3.5,3.08-4.72,5.69-4.72,3.67,0,5.65,2.22,5.73,5.33h-2.14c-.23-2.77-2.23-3.36-3.82-3.36-1,0-3.3.28-3.3,2.48,0,1.18.63,1.74,2,2.23a23.67,23.67,0,0,0,2.9.79c1.3.32,4.81,1,4.81,4.58,0,3.17-1.93,4.58-5.75,4.58C1094.69,1154,1092.66,1151.44,1092.41,1148.46Z" transform="translate(-349.11 -786)"/><path d="M1107.4,1137.66h2.1v16h-2.1Z" transform="translate(-349.11 -786)"/><path d="M1118.65,1139.68v13.94h-2.1v-13.94h-4.89v-2h11.84l0,2Z" transform="translate(-349.11 -786)"/><path d="M1137,1151.61v2h-12v-2l8.67-11.93h-8.46v-2h10.92l0,2-8.7,11.93Z" transform="translate(-349.11 -786)"/><path d="M1139.8,1146v-8.38h2.1v8.28c0,3.4.29,6,3.91,6s3.9-2.62,3.9-6v-8.28h2.1V1146c0,4.16-.5,7.92-6,7.92S1139.8,1150.18,1139.8,1146Z" transform="translate(-349.11 -786)"/><path d="M1155.24,1137.66h2.07l7.84,12.71v-12.71h2.1v16H1165l-7.71-12.16v12.16h-2.09Z" transform="translate(-349.11 -786)"/><path d="M1170.31,1145.62c0-5,3-8.29,7.58-8.29,3.74,0,6.6,2.25,7.14,5.6h-2.18a4.86,4.86,0,0,0-5-3.61c-3.19,0-5.29,2.52-5.29,6.34s2.37,6.3,6,6.3a5.85,5.85,0,0,0,4.43-1.84v-2.63h-5.56v-2H1185v5.46a8.05,8.05,0,0,1-6.53,3C1173.57,1154,1170.31,1150.62,1170.31,1145.62Z" transform="translate(-349.11 -786)"/><path d="M1092.11,1172.88h2.12c.25,2,1.28,3.08,3.23,3.08,2.84,0,2.94-2.16,2.94-6.32v-8h2.15v8c0,4.77-.3,8.28-4.94,8.28C1094.29,1178,1092.34,1176.19,1092.11,1172.88Z" transform="translate(-349.11 -786)"/><path d="M1106.16,1170v-8.38h2.1v8.28c0,3.4.29,6,3.9,6s3.91-2.62,3.91-6v-8.28h2.1V1170c0,4.16-.5,7.92-6,7.92S1106.16,1174.18,1106.16,1170Z" transform="translate(-349.11 -786)"/><path d="M1121.59,1161.66h5.59c3.32,0,5.33,1.37,5.33,4.27,0,3.25-2.73,4.07-6.26,4.07l6.91,7.62h-2.6l-6.89-7.62v7.62h-2.08Zm5.84,6.55c1.51,0,3-.73,3-2.3,0-1.41-1-2.36-3.29-2.36h-3.45v4.66Z" transform="translate(-349.11 -786)"/><path d="M1139,1172.1l-5.56-10.44h2.39l4.24,8.49,4.22-8.49h2.4l-5.59,10.44v5.52H1139Z" transform="translate(-349.11 -786)"/><rect class="cls-11" x="1438.39" y="226" width="1046" height="30" rx="15"/><rect class="cls-10" x="949.89" y="226.15" width="385" height="30" rx="15"/><rect class="cls-11" x="2828.39" y="225" width="74" height="30" rx="15"/></g></g></svg>